<?xml version="1.0" encoding="UTF-8" standalone="no"?>
<svg
   id="svg2"
   height="200"
   width="200"
   version="1.0"
   sodipodi:docname="animali_selvatici.svg"
   inkscape:version="1.1 (c68e22c387, 2021-05-23)"
   xmlns:inkscape="http://www.inkscape.org/namespaces/inkscape"
   xmlns:sodipodi="http://sodipodi.sourceforge.net/DTD/sodipodi-0.dtd"
   xmlns="http://www.w3.org/2000/svg"
   xmlns:svg="http://www.w3.org/2000/svg"
   xmlns:rdf="http://www.w3.org/1999/02/22-rdf-syntax-ns#"
   xmlns:cc="http://creativecommons.org/ns#"
   xmlns:dc="http://purl.org/dc/elements/1.1/">
  <sodipodi:namedview
     id="namedview9"
     pagecolor="#ffffff"
     bordercolor="#666666"
     borderopacity="1.0"
     inkscape:pageshadow="2"
     inkscape:pageopacity="0.0"
     inkscape:pagecheckerboard="0"
     showgrid="false"
     inkscape:zoom="4.06"
     inkscape:cx="100"
     inkscape:cy="100.12315"
     inkscape:window-width="1920"
     inkscape:window-height="1001"
     inkscape:window-x="-9"
     inkscape:window-y="-9"
     inkscape:window-maximized="1"
     inkscape:current-layer="svg2" />
  <metadata
     id="metadata12">
    <rdf:RDF>
      <cc:Work
         rdf:about="">
        <dc:format>image/svg+xml</dc:format>
        <dc:type
           rdf:resource="http://purl.org/dc/dcmitype/StillImage" />
        <cc:license
           rdf:resource="http://creativecommons.org/publicdomain/zero/1.0/" />
      </cc:Work>
      <cc:License
         rdf:about="http://creativecommons.org/publicdomain/zero/1.0/">
        <cc:permits
           rdf:resource="http://creativecommons.org/ns#Reproduction" />
        <cc:permits
           rdf:resource="http://creativecommons.org/ns#Distribution" />
        <cc:permits
           rdf:resource="http://creativecommons.org/ns#DerivativeWorks" />
      </cc:License>
    </rdf:RDF>
  </metadata>
  <defs
     id="defs4" />
  <g
     transform="matrix(-1,0,0,1,200,0)"
     id="g7259">
    <path
       style="fill:white;fill-rule:evenodd;stroke:black;stroke-width:1;stroke-miterlimit:4;stroke-dasharray:none"
       d="M 9.9600258,187.43692 C 6.5802873,187.43692 3.4572816,185.63383 1.7674092,182.7069 C 0.077542759,179.77996 0.077542759,176.17383 1.7674092,173.24688 L 91.807376,17.29308 C 93.497251,14.366144 96.620255,12.563078 99.999996,12.563078 C 103.37973,12.563078 106.50274,14.366144 108.19261,17.29308 L 198.23258,173.24688 C 199.92245,176.17383 199.92245,179.77996 198.23258,182.7069 C 196.54271,185.63383 193.4197,187.43692 190.03997,187.43692 L 9.9600258,187.43692 z "
       id="path1902" />
    <path
       style="fill:#d40000;fill-opacity:1;fill-rule:evenodd;stroke:none;stroke-width:40;stroke-miterlimit:4;stroke-opacity:1"
       d="M 100,15.0625 C 97.509413,15.0625 95.21405,16.374341 93.96875,18.53125 L 3.9375,174.5 C 2.6922068,176.65692 2.6922123,179.31185 3.9375,181.46875 C 5.1827964,183.62566 7.4781779,184.9375 9.96875,184.9375 L 190.03125,184.9375 C 192.52181,184.9375 194.81721,183.62565 196.0625,181.46875 C 197.30779,179.31184 197.3078,176.65691 196.0625,174.5 L 106.03125,18.53125 C 104.78596,16.374345 102.49058,15.0625 100,15.0625 z M 100,48.0625 L 167.46875,164.9375 L 32.53125,164.9375 L 100,48.0625 z "
       id="path4558" />
  </g>
  <path
     id="path1886"
     d="M 88.351921,93.060719 C 89.847368,91.503935 90.98526,89.743179 92.255267,88.011152 C 91.878403,86.534266 91.863681,84.277751 93.494424,83.519207 C 93.712084,83.560053 92.902739,84.952155 92.936803,85.625774 C 93.063301,86.131765 93.529478,86.957869 94.516729,86.152417 C 95.628435,85.449463 96.756495,84.688987 97.924412,84.355638 C 98.198728,82.742892 99.333832,81.487386 100.61958,80.669145 C 100.28239,82.06788 99.387854,83.12459 99.75217,84.851301 C 100.62617,85.289329 100.82294,86.016364 101.0223,86.6171 C 96.90635,85.026245 92.550954,88.391277 92.534077,92.348203 C 92.526429,94.141355 95.640977,93.368257 97.490706,92.750929 C 97.964254,92.632542 97.321319,93.508916 97.149938,93.680297 C 96.749823,94.080412 96.420876,94.40936 96.034696,94.795539 C 95.700095,95.130141 95.049496,95.32065 94.671623,95.415118 C 94.014901,95.579298 93.891994,95.714595 94.17596,96.282528 C 94.429221,96.78905 94.773366,96.813414 94.919455,97.397769 C 97.225456,107.72553 100.89072,117.34741 113.87856,119.08302 C 115.87207,119.57584 116.83423,119.23017 118.83519,119.08302 C 122.53804,120.65086 126.1779,122.86706 128.37671,126.39406 C 129.72469,127.97518 128.52195,128.94927 127.13755,129.36803 C 126.96387,129.54171 127.84817,131.06998 127.88104,131.10285 C 128.09584,131.31764 128.00496,132.46596 128.00496,132.83767 C 127.7727,134.967 128.68603,135.95587 130.11152,137.29864 C 130.43987,137.73643 131.01555,137.94568 131.4746,138.28996 C 131.97893,138.66822 132.52584,138.81559 132.96159,139.03346 C 133.67637,139.39085 133.95291,139.06929 133.95291,140.1487 C 133.95291,140.88414 133.79318,141.49243 133.95291,142.13135 C 134.13049,142.84167 134.14095,143.37918 134.32466,144.114 C 134.4898,144.77457 134.55259,145.14964 134.69641,145.72491 C 134.77748,146.0492 135.61245,146.69847 135.81165,146.96406 C 136.69387,149.61288 138.28807,151.5159 139.90087,153.65551 C 140.24608,154.00073 140.46113,154.4043 140.64436,154.77076 C 140.89675,155.27552 141.64405,155.51634 142.13135,155.63817 C 142.99629,155.8544 142.05788,155.62556 142.99876,155.39033 C 143.5612,155.24973 142.98207,156.56272 143.12268,157.12515 C 143.47812,158.11411 144.13044,158.87412 144.8575,159.60347 C 145.26424,160.01021 145.48844,160.39243 145.60099,160.84263 C 145.78132,161.56392 144.114,160.84263 143.37051,160.84263 C 142.61047,160.84263 142.26132,160.7512 141.63569,160.5948 C 141.18576,160.48231 140.66091,160.29328 140.27261,160.09913 C 140.09469,160.01017 139.64044,158.95869 139.52912,158.73606 C 139.20944,158.09671 138.9393,157.80425 138.66171,157.24907 C 134.98302,154.93835 134.23744,149.76502 131.59851,146.84015 C 131.24151,146.48314 131.04352,145.85409 130.85502,145.47708 C 130.66618,145.09939 130.22231,144.55085 129.98761,144.23792 C 129.62236,143.75092 129.50661,143.30524 129.36803,142.75093 C 129.21941,142.15647 128.68264,142.17686 128.00496,142.00743 C 127.3766,141.85035 126.60191,141.26494 126.27014,141.01611 C 122.90603,139.27197 119.47253,138.16685 117.84387,133.95291 C 117.65511,133.1979 117.71612,133.02163 117.10037,132.71375 C 116.46882,132.39798 115.86278,132.21887 115.36555,131.97026 C 114.63531,131.60514 113.93182,131.56318 113.25898,131.22677 C 112.66443,130.92949 112.17436,130.80837 111.772,130.60719 C 111.20987,130.32613 111.30095,129.98761 110.53284,129.98761 C 109.91326,129.98761 109.29368,129.98761 108.6741,129.98761 C 107.8893,129.98761 107.1045,129.98761 106.3197,129.98761 C 105.42436,129.98761 104.72807,129.86369 103.84139,129.86369 C 103.18087,129.86369 102.2313,129.77096 101.6109,129.61586 C 100.93381,129.44659 100.28016,129.3745 99.628253,129.24411 C 98.989052,129.11627 98.595975,128.91385 98.017348,128.62454 C 97.577142,128.40443 97.13532,128.28011 96.530359,128.12887 C 95.972068,127.9893 95.421268,127.88104 94.795539,127.88104 C 94.117937,127.88104 93.778837,127.75713 93.060719,127.75713 C 92.436336,127.75713 91.543087,127.65653 90.954151,127.50929 C 90.413797,127.37421 89.655695,127.50929 89.095415,127.50929 C 88.424112,127.50929 87.908622,127.52238 87.360595,127.38538 C 86.878064,127.26475 88.000219,128.14892 88.351921,128.50062 C 88.78842,128.93712 89.30963,129.16535 89.714994,129.36803 C 90.265629,129.64335 90.752325,129.99911 91.201983,130.11152 C 91.791183,130.25882 92.190359,130.66767 92.565056,130.85502 C 93.149827,131.1474 93.676941,131.47292 94.17596,131.72243 C 94.762174,132.01554 94.854252,132.30941 95.415118,132.58984 C 95.975395,132.86998 96.714707,133.11572 97.149938,133.33333 C 97.678306,133.59752 97.761726,133.92175 97.893433,134.44857 C 98.005915,134.8985 98.194949,135.42336 98.389095,135.81165 C 98.609455,136.25237 98.636927,137.10911 98.636927,137.54647 C 98.636927,138.71112 98.601122,138.40493 97.645601,138.16605 C 97.363889,138.09562 96.745797,137.51407 96.530359,137.29864 C 96.103431,136.87171 95.541689,136.68171 95.167286,136.30731 C 94.7927,135.93272 94.30118,135.62643 93.928129,135.4399 C 88.48281,133.16223 84.162691,128.94395 78.934325,126.39405 C 78.524397,126.29157 78.046414,125.87789 77.819083,125.65056 C 77.386893,125.21837 77.355581,125.0357 77.199504,124.4114 C 76.997292,123.60255 77.390222,123.35327 77.695167,123.04833 C 78.087445,122.65605 78.394713,122.56365 78.934325,122.42875 C 79.589734,122.2649 80.317224,122.30483 81.040892,122.30483 C 83.892875,122.09094 86.758618,122.57356 89.591078,122.42875 C 90.30053,122.42875 90.783285,122.39027 91.201983,122.18092 C 91.724371,121.91972 91.315894,120.90174 91.201983,120.4461 C 89.778998,118.5206 90.264123,116.87987 90.70632,115.11772 C 90.70632,114.62247 91.078067,114.31167 91.078067,113.63073 C 91.078067,113.25103 90.683863,112.67349 90.582404,112.26766 C 90.485538,111.88019 90.138311,111.13164 89.962825,110.78067 C 89.110943,108.61342 89.219331,106.38021 89.219331,104.08922 C 89.219331,103.46964 89.219331,102.85006 89.219331,102.23048 C 89.219331,101.4826 88.754247,101.50228 88.228005,101.23916 C 85.627713,100.28397 83.072354,99.276478 80.545229,98.141264 C 80.056036,97.896667 79.674479,97.762836 79.429988,97.273854 C 79.124531,96.662941 79.981251,96.350843 80.173482,96.158612 C 83.115834,95.880342 86.163399,95.339005 88.351921,93.060719 z "
     style="fill:black;fill-rule:evenodd;stroke:none;stroke-width:1px;stroke-linecap:butt;stroke-linejoin:miter;stroke-opacity:1;fill-opacity:1" />
</svg>
