<?xml version="1.0" encoding="UTF-8" standalone="no"?>
<!-- Created with Inkscape (http://www.inkscape.org/) -->

<svg
   version="1.1"
   width="110"
   height="110"
   id="svg2"
   sodipodi:docname="attr_pedonale.svg"
   inkscape:version="1.1 (c68e22c387, 2021-05-23)"
   xmlns:inkscape="http://www.inkscape.org/namespaces/inkscape"
   xmlns:sodipodi="http://sodipodi.sourceforge.net/DTD/sodipodi-0.dtd"
   xmlns="http://www.w3.org/2000/svg"
   xmlns:svg="http://www.w3.org/2000/svg"
   xmlns:rdf="http://www.w3.org/1999/02/22-rdf-syntax-ns#"
   xmlns:cc="http://creativecommons.org/ns#"
   xmlns:dc="http://purl.org/dc/elements/1.1/">
  <sodipodi:namedview
     id="namedview17"
     pagecolor="#ffffff"
     bordercolor="#666666"
     borderopacity="1.0"
     inkscape:pageshadow="2"
     inkscape:pageopacity="0.0"
     inkscape:pagecheckerboard="0"
     showgrid="false"
     inkscape:zoom="7.3818182"
     inkscape:cx="55"
     inkscape:cy="55.067734"
     inkscape:window-width="1920"
     inkscape:window-height="1001"
     inkscape:window-x="-9"
     inkscape:window-y="-9"
     inkscape:window-maximized="1"
     inkscape:current-layer="svg2" />
  <title
     id="title4020">attraversamento pedonale</title>
  <defs
     id="defs4" />
  <g
     transform="matrix(0.999179,0,0,0.998701,-34.714286,-683.57143)"
     id="g2830"
     style="font-size:11px;font-style:normal;font-weight:400;fill:none;stroke:#000000;stroke-width:1;stroke-linecap:square;stroke-linejoin:bevel;stroke-opacity:1;font-family:MS Shell Dlg 2" />
  <rect
     width="109.95494"
     height="109.95443"
     x="0.125"
     y="-0.07942988"
     id="rect3193"
     style="fill:#0000ff;fill-opacity:1;stroke:#000000;stroke-width:0.25;stroke-linejoin:miter;stroke-miterlimit:4;stroke-opacity:1;stroke-dasharray:none;stroke-dashoffset:0" />
  <path
     d="m 98.771363,92.6616 -88.477074,0 43.97115,-75.97792 44.505924,75.97792 z"
     id="path3970"
     style="fill:#ffffff;fill-opacity:1;stroke:none" />
  <path
     d="m 50.586829,43.59526 -9.976567,14.02215 c 0,0 -0.542922,2.05214 1.086156,2.53913 1.660336,0.49636 2.389551,-0.41505 2.389551,-0.41505 l 5.599751,-7.48716 1.930949,3.84124 -11.690286,24.23563 c 0,0 -0.106269,1.8664 1.30339,2.6449 2.16515,1.1958 3.628575,-0.708 3.628575,-0.708 0,0 9.268554,-20.4758 9.461649,-20.4595 0.193096,0.016 1.142479,0 1.142479,0 L 63.6851,82.4797 c 0,0 0.845095,1.2159 2.952743,0.7324 1.556429,-0.357 1.649351,-2.5391 1.649351,-2.5391 0,0 -9.86393,-24.06473 -9.80761,-24.07286 0.05632,-0.008 0.796515,-6.70183 0.796515,-6.70183 0,0 3.66478,3.47095 3.644667,3.48723 -0.02011,0.0163 -0.0081,5.0457 -0.0081,5.0457 0,0 0.431453,1.77456 2.59069,1.48929 1.781122,-0.23528 1.94704,-1.51371 1.94704,-1.51371 l -0.04023,-7.30812 c 0,0 -10.000706,-9.68449 -10.06507,-9.70077 -0.06437,-0.0163 -1.078115,-0.39063 -1.078115,-0.39063 l -2.655054,0.0163 -3.025154,2.57168 9e-6,0 z"
     id="path3984"
     style="fill:#000000;fill-opacity:1;stroke:none" />
  <rect
     width="105.4298"
     height="104.82031"
     rx="10"
     ry="10"
     x="2.3189533"
     y="2.7330701"
     id="rect3968"
     style="fill:none;stroke:#ffffff;stroke-width:2;stroke-linejoin:miter;stroke-miterlimit:4;stroke-opacity:1;stroke-dasharray:none;stroke-dashoffset:0" />
  <path
     d="m 82.672763,72.4046 -5.020466,0 8.045618,16.5694 7.305424,0 -10.330576,-16.5694 z"
     id="path3191"
     style="fill:#000000;fill-opacity:1;stroke:#000000;stroke-width:1px;stroke-linecap:butt;stroke-linejoin:miter;stroke-opacity:1" />
  <polyline
     transform="matrix(0.18007393,0,0,0.1820594,-47.260784,-11.80977)"
     style="font-size:11px;font-style:normal;font-weight:400;fill:#000000;fill-opacity:1;stroke:none;font-family:MS Shell Dlg 2"
     vector-effect="non-scaling-stroke"
     points="570.302,265.02 570.108,262.13 569.531,259.292 568.581,256.556 567.275,253.971 565.636,251.583 563.693,249.435 561.481,247.565 559.039,246.006 556.412,244.787 553.646,243.929 550.789,243.447 547.895,243.35 545.013,243.64 542.195,244.311 539.492,245.352 536.952,246.744 534.62,248.463 532.538,250.476 530.743,252.749 529.267,255.241 528.136,257.908 527.371,260.702 526.985,263.572 526.985,266.469 527.371,269.339 528.136,272.133 529.267,274.799 530.743,277.292 532.538,279.565 534.62,281.578 536.952,283.296 539.492,284.688 542.195,285.729 545.013,286.401 547.895,286.691 550.789,286.594 553.646,286.112 556.412,285.254 559.039,284.035 561.481,282.476 563.693,280.606 565.636,278.458 567.275,276.07 568.581,273.485 569.531,270.749 570.108,267.91 570.302,265.02 "
     id="polyline2896" />
  <path
     d="m 66.324062,72.4046 3.443527,8.301 c 0,0 -0.128731,0.6185 -0.128731,0.8138 0,0.1953 -0.354006,1.1068 -0.354006,1.1068 l -0.675832,0.8464 -0.740199,0.651 c 0,0 -0.740196,0.1953 -0.740196,0.3255 0,0.1302 0.933292,4.5574 0.933292,4.5574 l 7.530701,0 -5.728483,-16.5694 -3.540073,-0.033 z"
     id="path3189"
     style="fill:#000000;fill-opacity:1;stroke:#000000;stroke-width:1px;stroke-linecap:butt;stroke-linejoin:miter;stroke-opacity:1" />
  <path
     d="m 51.520122,72.4046 5.213562,0 1.737854,16.5694 -8.142169,0 1.190753,-16.5694 z"
     id="path3187"
     style="fill:#000000;fill-opacity:1;stroke:#000000;stroke-width:1px;stroke-linecap:butt;stroke-linejoin:miter;stroke-opacity:1" />
  <path
     d="m 38.872406,72.4046 c 0,0 -6.082489,16.667 -5.792845,16.6019 0.289642,-0.065 7.369787,-0.033 7.369787,-0.033 l 0.868927,-4.4598 c 0,0 -0.90111,-0.358 -1.029838,-0.4231 -0.128731,-0.065 -1.222936,-1.3673 -1.222936,-1.3673 l -0.482737,-1.2695 -0.03218,-1.3021 3.733169,-7.7476 -3.411345,0 z"
     id="path3185"
     style="fill:#000000;fill-opacity:1;stroke:#000000;stroke-width:1px;stroke-linecap:butt;stroke-linejoin:miter;stroke-opacity:1" />
  <path
     d="m 15.121736,88.9089 10.748949,-16.4718 5.342291,0.065 -8.367445,16.4718 -7.723795,-0.065 z"
     id="path3183"
     style="fill:#000000;fill-opacity:1;stroke:#000000;stroke-width:1px;stroke-linecap:butt;stroke-linejoin:miter;stroke-opacity:1" />
  <g
     transform="translate(0,-942.36218)"
     id="layer2"
     style="display:none" />
  <metadata
     id="metadata834">
    <rdf:RDF>
      <cc:Work
         rdf:about="">
        <dc:title>attraversamento pedonale</dc:title>
        <cc:license
           rdf:resource="http://creativecommons.org/publicdomain/zero/1.0/" />
      </cc:Work>
      <cc:License
         rdf:about="http://creativecommons.org/publicdomain/zero/1.0/">
        <cc:permits
           rdf:resource="http://creativecommons.org/ns#Reproduction" />
        <cc:permits
           rdf:resource="http://creativecommons.org/ns#Distribution" />
        <cc:permits
           rdf:resource="http://creativecommons.org/ns#DerivativeWorks" />
      </cc:License>
    </rdf:RDF>
  </metadata>
</svg>
