<?xml version="1.0" encoding="UTF-8" standalone="no"?>
<!-- Created with Inkscape (http://www.inkscape.org/) -->

<svg
   version="1.1"
   width="622"
   height="534"
   id="svg2"
   sodipodi:docname="cadutamassi.svg"
   inkscape:version="1.1 (c68e22c387, 2021-05-23)"
   xmlns:inkscape="http://www.inkscape.org/namespaces/inkscape"
   xmlns:sodipodi="http://sodipodi.sourceforge.net/DTD/sodipodi-0.dtd"
   xmlns="http://www.w3.org/2000/svg"
   xmlns:svg="http://www.w3.org/2000/svg"
   xmlns:rdf="http://www.w3.org/1999/02/22-rdf-syntax-ns#"
   xmlns:cc="http://creativecommons.org/ns#"
   xmlns:dc="http://purl.org/dc/elements/1.1/">
  <sodipodi:namedview
     id="namedview21"
     pagecolor="#ffffff"
     bordercolor="#666666"
     borderopacity="1.0"
     inkscape:pageshadow="2"
     inkscape:pageopacity="0.0"
     inkscape:pagecheckerboard="0"
     showgrid="false"
     inkscape:zoom="1.4930484"
     inkscape:cx="311.44335"
     inkscape:cy="264.89429"
     inkscape:window-width="1920"
     inkscape:window-height="1001"
     inkscape:window-x="-9"
     inkscape:window-y="-9"
     inkscape:window-maximized="1"
     inkscape:current-layer="svg2" />
  <title
     id="title3632">Pericolo caduta massi</title>
  <defs
     id="defs4" />
  <path
     d=""
     id="path2842"
     style="fill:#000000;fill-opacity:1;fill-rule:evenodd;stroke:#000000;stroke-width:5;stroke-linejoin:miter;stroke-miterlimit:4;stroke-dasharray:none;stroke-dashoffset:0;stroke-opacity:1" />
  <g
     id="g867">
    <path
       d="M 34.741382,525.43791 C 27.7207,523.73662 24.153256,521.95147 19.355039,517.73858 11.40254,510.75619 8.953274,498.75433 12.895783,486.08703 15.16999,478.77998 1.299455,503.03724 155.29165,237.06035 234.77426,99.77717 283.4221,16.73696 286.23152,13.55044 288.69015,10.7618 293.13136,7.13464 296.10088,5.49009 300.97384,2.79139 302.37708,2.5 310.5,2.5 c 8.07668,0 9.54107,0.29978 14.27407,2.92203 10.67319,5.91334 5.99129,-1.53471 91.19705,145.07797 12.78557,22 24.47648,42.025 25.97979,44.5 1.50332,2.475 5.58844,9.45 9.07804,15.5 3.48961,6.05 10.03465,17.3 14.54454,25 30.40588,51.91371 139.53652,239.74219 141.18923,243.00562 8.56986,16.92199 4.71993,34.78492 -9.27625,43.04004 -9.74042,5.74501 7.09016,5.43089 -286.98647,5.35625 -227.420948,-0.0577 -270.908138,-0.2886 -275.758618,-1.464 z m 552.909568,-2.69723 c 17.65704,-6.03083 24.84216,-19.59133 19.20236,-36.24068 -1.54493,-4.5608 -13.6562,-26.33934 -34.75692,-62.5 -17.81216,-30.525 -38.54538,-66.075 -46.07383,-79 -7.52845,-12.925 -19.45768,-33.4 -26.5094,-45.5 -7.05173,-12.1 -22.5006,-38.65 -34.33083,-59 -11.83022,-20.35 -25.86946,-44.425 -31.19831,-53.5 -5.32885,-9.075 -21.9736,-37.65 -36.98835,-63.5 C 381.98092,97.65 367.82826,73.35 365.54531,69.5 363.26237,65.65 355.79324,52.86173 348.94725,41.08162 342.10126,29.30151 334.56618,17.51168 332.20261,14.88199 318.40185,-0.4727 297.33428,1.54908 285.07013,19.40511 283.52325,21.6573 273.13461,39.25 261.98427,58.5 250.83393,77.75 239.4841,97.325 236.76244,102 c -2.72166,4.675 -10.91788,18.85 -18.21381,31.5 -15.81764,27.42529 -55.63555,96.22454 -73.50188,127 -31.97581,55.07961 -74.829888,129.1368 -99.529868,172 -5.38795,9.35 -12.96513,22.4 -16.838189,29 -15.877961,27.05732 -18.327174,36.26484 -12.635073,47.5 3.743952,7.38988 13.43728,13.26493 24.594202,14.90635 3.2242,0.47435 126.462178,0.80198 273.862178,0.72805 252.9565,-0.12686 268.28914,-0.23316 273.15095,-1.89372 z M 38.045302,520.91307 c -6.27557,-1.23783 -14.503377,-5.48032 -17.473097,-9.00963 -5.515849,-6.55521 -5.803893,-18.02547 -0.733479,-29.20803 1.579936,-3.48447 6.026382,-11.70391 9.880992,-18.26541 3.854604,-6.5615 10.374254,-17.78 14.488084,-24.93 4.11384,-7.15 17.52394,-30.325 29.80022,-51.5 12.27628,-21.175 24.10957,-41.65 26.296208,-45.5 2.18663,-3.85 8.55604,-14.875 14.15425,-24.5 5.5982,-9.625 15.38775,-26.5 21.75456,-37.5 6.3668,-11 34.63952,-59.825 62.82826,-108.5 28.18874,-48.675 55.15464,-95.26439 59.92422,-103.53197 4.76959,-8.26758 12.91604,-22.37332 18.10323,-31.3461 5.18719,-8.97277 11.3571,-18.32689 13.71091,-20.78693 6.05914,-6.33259 13.78498,-9.68418 21.05878,-9.13562 12.83009,0.9676 18.63789,6.568 33.60716,32.40701 C 351.46568,49.99788 369.50496,81 385.53288,108.5 c 16.02793,27.5 40.52515,69.575 54.43827,93.5 13.91312,23.925 26.76863,45.975 28.56781,49 1.79918,3.025 13.06037,22.375 25.02487,43 11.9645,20.625 25.44425,43.8 29.95501,51.5 9.61474,16.41267 28.17437,48.25729 56.53337,97 25.92311,44.55597 25.19576,43.07005 25.74743,52.59991 0.3771,6.51408 0.10093,8.47403 -1.72569,12.24732 -2.50746,5.17972 -7.13962,9.04265 -14.44199,12.0437 L 584.5,521.5 l -271,0.14587 c -152.3529,0.082 -272.950318,-0.23883 -275.454698,-0.7328 z M 310.5,518.00628 38.500002,517.5 l -5.801,-2.8485 C 25.156156,510.94769 21.77668,506.06073 21.194743,498.01554 20.505474,488.48649 16.052575,497.01186 75.000932,395 89.461822,369.975 104.65923,343.65 108.77295,336.5 116.3262,323.37178 169.98752,230.42937 207.79034,165 231.84478,123.36643 252.37759,87.79666 273.59737,51 282.00243,36.425 290.27672,22.475 291.98469,20 l 3.10541,-4.5 -3.29505,3.83228 c -1.81228,2.10776 -12.46261,19.65776 -23.6674,39 C 256.92286,77.67453 237.06565,111.95 224.00052,134.5 73.847472,393.65933 23.281648,481.36429 21.345087,486 c -4.423245,10.5883 -2.435918,21.95088 4.731917,27.05483 1.717255,1.2228 5.664938,3.03649 8.772638,4.03044 5.39818,1.72652 17.74537,1.7987 276.650358,1.61723 l 271,-0.18995 z m 280,-1.89271 c 8.68677,-4.00137 12.9396,-10.47708 12.8918,-19.63011 -0.0425,-8.1314 -1.03643,-10.1309 -28.11595,-56.55934 C 541.33589,381.73331 500.52724,311.65703 382.27228,108.5 355.05974,61.75 332.07822,22.825 331.20224,22 c -1.41574,-1.33333 -1.4736,-1.33333 -0.52075,0 0.80697,1.1292 51.2778,87.86113 68.3753,117.5 1.2691,2.2 5.9741,10.3 10.45557,18 4.48146,7.7 12.45543,21.425 17.71993,30.5 5.26449,9.075 18.32779,31.575 29.02955,50 10.70176,18.425 29.12299,50.15 40.93607,70.5 44.85162,77.26437 76.50555,131.74992 88.59525,152.49798 15.46887,26.54731 16.15739,28.04834 16.18488,35.28414 0.0386,10.17443 -4.46024,16.46553 -14.17409,19.82064 -2.91717,1.00757 -4.40395,1.83676 -3.30395,1.84263 1.1,0.006 3.8,-0.81844 6,-1.83182 z m -1.41143,-3.23434 c 6.46707,-3.03275 9.90708,-7.66098 10.66016,-14.34234 0.72118,-6.39823 -0.8459,-10.0067 -14.56431,-33.53689 -6.89413,-11.825 -17.23932,-29.6 -22.98933,-39.5 -5.75,-9.9 -13.49792,-23.175 -17.21761,-29.5 -3.71968,-6.325 -7.88937,-13.525 -9.26596,-16 -1.91384,-3.44092 -43.5256,-75.08153 -53.72774,-92.5 -0.96642,-1.65 -4.199,-7.275 -7.18352,-12.5 -2.98452,-5.225 -9.51536,-16.475 -14.51297,-25 -4.99761,-8.525 -17.95828,-30.8 -28.80149,-49.5 -10.84321,-18.7 -25.46803,-43.9 -32.4996,-56 -7.03157,-12.1 -21.67611,-37.3 -32.54344,-56 C 355.57543,69.8 342.64661,47.525 337.71204,39 c -4.93457,-8.525 -10.37597,-17.00193 -12.092,-18.83763 -8.6982,-9.3048 -21.33651,-9.51865 -29.78229,-0.50395 -2.81541,3.00505 -5.82864,8.04984 -33.35402,55.84158 -9.50308,16.5 -21.44402,37.2 -26.53543,46 -5.0914,8.8 -11.59107,20.05 -14.4437,25 -2.85264,4.95 -10.27033,17.775 -16.48375,28.5 -6.21342,10.725 -16.35753,28.275 -22.54246,39 -24.15178,41.8805 -44.46704,77.09564 -51.92007,90 -4.28837,7.425 -12.97391,22.5 -19.30118,33.5 -6.32727,11 -13.645328,23.6 -16.262358,28 -2.61702,4.4 -6.53814,11.15 -8.71359,15 -2.17546,3.85 -11.50233,20.05 -20.72638,36 -9.22405,15.95 -18.13608,31.475 -19.80453,34.5 -1.66844,3.025 -3.79816,6.625 -4.73271,8 -0.93456,1.375 -5.17407,8.64613 -9.42115,16.15807 -9.200107,16.27253 -10.317185,21.29073 -6.417774,28.8303 2.693711,5.20834 9.043684,9.57987 15.866284,10.92287 2.49741,0.49161 122.660018,0.81364 273.455068,0.73286 L 583.5,515.5 Z M 124,448.5197 c 0,-0.81416 4.05,-8.52233 9,-17.12925 4.95,-8.60693 9,-15.85882 9,-16.11533 0,-0.25651 0.83908,-1.66085 1.86463,-3.12075 1.02554,-1.4599 10.65312,-17.95437 21.3946,-36.65437 22.26804,-38.76674 38.63059,-67.1747 49.53469,-86 24.65703,-42.56896 43.78445,-75.74773 46.08592,-79.94148 0.92316,-1.68219 4.20457,-7.33352 7.29203,-12.55852 3.08746,-5.225 6.67434,-11.36503 7.97085,-13.64451 24.73377,-43.48626 33.58435,-58.2927 34.85728,-58.31395 0.825,-0.0138 2.43457,1.65875 3.57682,3.71671 1.14225,2.05796 8.29415,14.54175 15.89311,27.74175 7.59897,13.2 18.18148,31.65 23.5167,41 5.33522,9.35 17.72465,30.95 27.53208,48 20.66886,35.93238 59.39835,103.36736 73.5134,128 5.35776,9.35 17.21735,29.99254 26.35464,45.87231 C 490.52404,435.25208 498,448.63958 498,449.12231 498,449.62277 417.62699,450 311,450 146.55058,450 124,449.82149 124,448.5197 Z M 492.34411,443.5 c -1.38331,-2.475 -2.63922,-4.5 -2.79093,-4.5 -0.15171,0 -0.0608,1.125 0.20207,2.5 l 0.4779,2.5 H 312.5 134.76685 l 0.45184,-2.25 c 0.24851,-1.2375 20.82227,-37.8 45.71947,-81.25 24.8972,-43.45 62.1786,-108.55931 82.84755,-144.68735 30.93781,-54.07735 37.85691,-65.53248 39.1471,-64.81114 0.86196,0.48191 4.26461,6.05958 7.56145,12.39482 l 5.99425,11.51863 -5.30516,10.01832 -5.30516,10.01833 8.5609,15.63904 c 4.7085,8.60148 8.56091,16.69634 8.56091,17.98858 0,1.29224 -2.49632,6.92064 -5.54739,12.50755 -3.05106,5.5869 -6.85528,12.74892 -8.4538,15.91559 l -2.90642,5.75758 9.9538,16.11717 c 5.4746,8.86445 9.95381,16.33982 9.95381,16.61194 0,0.51259 -24.40035,45.91453 -28.51221,53.05289 l -2.32825,4.04196 14.17023,24.15705 14.17023,24.15705 17.52008,0.051 17.52008,0.051 8.54443,15.75 8.54443,15.75 54.83154,0.25861 c 50.71297,0.23918 54.9397,0.38941 56.27151,2 0.79198,0.95776 0.54838,0.16639 -0.54135,-1.75861 -2.67274,-4.7214 -17.95752,-31.37589 -34.40646,-60 -7.42739,-12.925 -21.37811,-37.225 -31.0016,-54 -25.0774,-43.71319 -54.46902,-94.90455 -74.06559,-129 -9.32542,-16.225 -21.01583,-36.5875 -25.97867,-45.25 -4.96285,-8.6625 -9.30441,-15.75 -9.6479,-15.75 -0.3435,0 -9.91764,16.0875 -21.27587,35.75 -69.54109,120.3842 -108.36679,187.65973 -140.06768,242.70334 -10.43822,18.12434 -20.05712,34.66184 -21.37532,36.75 L 125.97491,448 h 184.44215 184.44215 z m -91.66416,-72.25 c -5.47639,-8.75703 -7.67623,-13.04146 -7.6185,-14.83786 0.0338,-1.05168 2.18876,-5.28714 4.78879,-9.41214 l 4.72733,-7.5 h 10.42193 10.42193 l 4.96657,8.46004 4.96657,8.46003 -4.29558,8.03997 c -2.36257,4.42198 -5.00336,8.60246 -5.86842,9.28996 -1.00355,0.79757 -4.9376,1.25 -10.86916,1.25 h -9.29632 z m 25.0923,-6.76717 4.27226,-7.49594 -4.11264,-7.49344 L 421.81923,342 h -8.79565 -8.79565 l -4.11396,6.92483 C 397.85128,352.73349 396,356.37936 396,357.02677 c 0,0.64741 1.9125,4.27739 4.25,8.06661 l 4.25,6.8895 8.5,-0.002 8.5,-0.002 4.27225,-7.49593 z m -59.78389,-18.00317 -3.15842,-5.52034 2.95023,-5.22966 2.95022,-5.22966 6.51461,-0.29295 6.51462,-0.29295 2.62019,4.47102 c 3.2755,5.58922 3.2794,7.63388 0.0252,13.18681 L 381.80996,352 h -6.33159 -6.33159 z M 382.5,344.75 c 2,-3.75 2,-3.75 0,-7.5 -1.85862,-3.48491 -2.35345,-3.76959 -7,-4.02719 -4.89364,-0.27129 -5.04832,-0.19182 -7.2716,3.73566 l -2.2716,4.01283 2.56755,4.06727 c 2.47463,3.92007 2.73778,4.0563 7.2716,3.76434 4.2917,-0.27636 4.87936,-0.63163 6.70405,-4.05291 z m -39.52445,-21.80902 c -1.11968,-2.70315 -1.07721,-3.53688 0.29537,-5.79901 1.27798,-2.10622 2.36849,-2.64197 5.37772,-2.64197 4.78972,0 7.38227,3.65764 5.79937,8.18193 -0.86252,2.46529 -1.56047,2.8555 -5.57536,3.11708 -4.31899,0.28139 -4.66646,0.11298 -5.8971,-2.85803 z m 8.5732,-0.67677 c 1.7286,-2.364 0.0667,-5.26421 -3.01655,-5.26421 -2.82168,0 -4.32309,3.34211 -2.49237,5.54799 1.62049,1.95258 3.96185,1.83197 5.50892,-0.28378 z M 351.75,296.96157 c -2.6125,-4.40456 -4.75,-8.63663 -4.75,-9.4046 0,-0.76797 2.1375,-5.0214 4.75,-9.45207 l 4.75,-8.05575 10.57108,-0.0246 10.57107,-0.0246 4.67893,8.33577 C 384.89448,282.92044 387,287.04434 387,287.5 c 0,0.45566 -2.10552,4.57956 -4.67892,9.16423 L 377.64215,305 367.07108,304.9849 356.5,304.9698 l -4.75,-8.00828 z m 28.12899,-1.54507 4.37899,-7.55896 -2.67152,-4.67877 c -1.46934,-2.57332 -3.41073,-6.14127 -4.3142,-7.92877 L 375.62958,272 h -8.30225 -8.30224 l -2.35269,3.75 c -1.29397,2.0625 -3.40582,5.59073 -4.69299,7.8405 l -2.34031,4.0905 4.43045,7.64724 4.43045,7.64723 h 8.5 8.5 z M 325.59502,267.57193 C 324.16776,265.13649 323,262.52459 323,261.76771 c 0,-0.75688 1.34009,-3.48925 2.97798,-6.07193 C 328.94062,251.02417 328.98449,251 334.5,251 c 5.51551,0 5.55938,0.0242 8.52202,4.69578 1.63789,2.58268 2.97798,5.31505 2.97798,6.07193 0,0.75688 -1.16776,3.36878 -2.59502,5.80422 L 340.80996,272 H 334.5 328.19004 Z m 15.51203,-1.85537 2.08105,-4.28343 -2.19283,-3.71657 C 339.00295,254.33983 338.40748,254 334.48278,254 c -3.82583,0 -4.55763,0.38504 -6.40122,3.36803 -2.57989,4.17436 -2.57895,4.67464 0.0172,9.07481 1.90103,3.22201 2.51467,3.55716 6.51299,3.55716 4.20805,0 4.51142,-0.20006 6.49528,-4.28344 z m -20.0822,-65.17635 c -1.78904,-2.89473 -1.94469,-3.83382 -0.95306,-5.75 2.20223,-4.25545 4.19301,-5.79021 7.51062,-5.79021 6.03859,0 9.34121,7.13456 5.80258,12.53518 -1.30241,1.98773 -2.44798,2.46482 -5.91844,2.46482 -3.82999,0 -4.53867,-0.38063 -6.4417,-3.45979 z m 10.33007,-1.24807 c 1.23481,-2.35673 1.22404,-3.0051 -0.0831,-5 -1.99274,-3.04131 -5.6152,-2.94326 -7.67989,0.20786 -1.51742,2.31587 -1.51742,2.68413 0,5 2.22848,3.40109 5.92388,3.30214 7.76296,-0.20786 z M 486.80125,441.25 c -0.20099,-0.4125 -0.98572,-1.9875 -1.74385,-3.5 L 483.67897,435 h -54.81643 -54.81643 l -1.38412,-2.25 c -0.76127,-1.2375 -4.70914,-8.42333 -8.77306,-15.9685 L 356.5,403.06299 l -17.5,-0.0529 -17.5,-0.0528 -7.44919,-12.72865 c -4.09705,-7.00076 -10.50808,-17.90365 -14.24673,-24.22865 -3.73865,-6.325 -6.79902,-12.28843 -6.80081,-13.25206 -0.003,-1.47695 24.16663,-47.49582 28.65569,-54.56087 1.60394,-2.52433 1.98145,-1.78163 -13.41245,-26.387 -5.20573,-8.32075 -5.38164,-8.82197 -4.03619,-11.5 0.77373,-1.54004 4.83714,-9.32507 9.02982,-17.30007 l 7.62304,-14.5 -8.97111,-16.65852 -8.97111,-16.65851 5.11959,-10.34149 5.11958,-10.34148 -5.20438,-9.83997 c -4.22347,-7.98534 -5.43628,-9.58741 -6.43477,-8.5 -0.67671,0.73698 -15.87449,26.98997 -33.77284,58.33997 -17.89836,31.35 -54.41374,95.19911 -81.1453,141.88691 C 159.87128,403.07469 138,441.43719 138,441.6369 c 0,0.1997 78.5625,0.36309 174.58333,0.36309 96.02084,0 174.4189,-0.3375 174.21792,-0.75 z M 330,19.67431 c 0,-0.17912 -1.2375,-1.41662 -2.75,-2.75 L 324.5,14.5 l 2.42431,2.75 C 329.1902,19.82029 330,20.45859 330,19.67431 Z m -22.75,-9.33659 c -0.6875,-0.27741 -1.8125,-0.27741 -2.5,0 -0.6875,0.27741 -0.125,0.50438 1.25,0.50438 1.375,0 1.9375,-0.22697 1.25,-0.50438 z m 9,0 c -0.6875,-0.27741 -1.8125,-0.27741 -2.5,0 -0.6875,0.27741 -0.125,0.50438 1.25,0.50438 1.375,0 1.9375,-0.22697 1.25,-0.50438 z"
       id="path2830"
       style="fill:#000000" />
    <path
       d="M 35.223603,510.91374 C 27.754694,507.3142 24.550734,497.80034 27.576431,488.2062 28.727253,484.55708 82.343764,390.28571 146.72423,278.71428 283.99785,40.818938 290.7717,29.300039 298.3606,20.857141 c 7.3651,-8.193908 16.77045,-8.193908 24.65059,0 5.20915,5.416576 229.07912,387.728259 263.23063,449.529459 12.80574,23.17351 14.02546,33.15823 4.83672,39.59425 -5.64392,3.95315 -36.54063,4.4262 -277.85715,4.25435 C 122.7666,514.09954 39.776634,513.108 35.223603,510.91374 Z M 497.42856,448.3478 c 0,-3.69237 5.56546,6.23457 -95.10357,-169.63352 C 360.04828,204.85714 322.25654,139.46954 318.34336,133.4085 l -7.11488,-11.02007 -6.42455,9.5915 c -8.28691,12.37188 -156.57448,268.99144 -170.64242,295.30578 -9.43819,17.65434 -10.12493,20.22777 -5.85543,21.94203 8.87354,3.56289 369.12248,2.70406 369.12248,-0.87994 z"
       id="path2832"
       style="fill:#ff0000;fill-opacity:1;fill-rule:evenodd;stroke:#000000;stroke-width:5;stroke-linejoin:miter;stroke-miterlimit:4;stroke-dasharray:none;stroke-dashoffset:0;stroke-opacity:1" />
    <path
       d="m 148.08505,426.31579 c 4.35322,-7.60489 40.70066,-71.10708 80.77209,-141.11599 l 72.85714,-127.28891 5.09417,7.96443 c 4.83662,7.56178 4.84608,8.48468 0.18703,18.25482 -4.83948,10.14849 -4.79367,10.52781 3.32278,27.5094 l 8.22994,17.21901 -7.70267,15.70545 c -4.23648,8.638 -7.70268,17.17155 -7.70268,18.96345 0,1.79189 4.12723,9.68972 9.17163,17.55074 l 9.17163,14.29274 -15.26247,29.15012 -15.26246,29.15012 14.04252,23.95013 14.04254,23.95013 18.26298,1.42857 18.26298,1.42857 8.78533,16.33705 8.78532,16.33706 55.71429,0.86977 c 30.64285,0.47838 -21.77601,1.16242 -116.48637,1.52009 l -172.20065,0.65031 z"
       id="path2834"
       style="fill:#000000;fill-opacity:1;fill-rule:evenodd;stroke:#000000;stroke-width:5;stroke-linejoin:miter;stroke-miterlimit:4;stroke-dasharray:none;stroke-dashoffset:0;stroke-opacity:1" />
    <path
       d="m 324.60022,197.33232 c -0.98703,-1.59706 0.20984,-2.90375 2.65972,-2.90375 5.01865,0 5.7576,1.71444 1.79462,4.1637 -1.46285,0.90409 -3.4673,0.33711 -4.45434,-1.25995 z"
       id="path2836"
       style="fill:#000000;fill-opacity:1;fill-rule:evenodd;stroke:#000000;stroke-width:5;stroke-linejoin:miter;stroke-miterlimit:4;stroke-dasharray:none;stroke-dashoffset:0;stroke-opacity:1" />
    <path
       d="m 329.81666,264.23652 c -2.38132,-6.2056 3.6641,-12.04147 7.99128,-7.71429 3.65724,3.65724 1.39158,12.19205 -3.23652,12.19205 -1.67007,0 -3.80971,-2.01499 -4.75476,-4.47776 z"
       id="path2838"
       style="fill:#000000;fill-opacity:1;fill-rule:evenodd;stroke:#000000;stroke-width:5;stroke-linejoin:miter;stroke-miterlimit:4;stroke-dasharray:none;stroke-dashoffset:0;stroke-opacity:1" />
    <path
       d="m 355.96721,296.20809 c -10.32897,-15.764 11.77222,-31.07094 22.581,-15.63925 3.80071,5.42627 3.81101,7.08744 0.0886,14.28571 -5.34992,10.34564 -16.34754,11.00227 -22.66963,1.35354 z"
       id="path2840"
       style="fill:#000000;fill-opacity:1;fill-rule:evenodd;stroke:#000000;stroke-width:5;stroke-linejoin:miter;stroke-miterlimit:4;stroke-dasharray:none;stroke-dashoffset:0;stroke-opacity:1" />
    <path
       d="m 369.94286,344.56539 c -1.99034,-5.18673 0.9006,-10.13682 5.92007,-10.13682 5.21302,0 7.55522,7.15327 3.62808,11.08041 -4.35232,4.35232 -7.64063,4.02735 -9.54815,-0.94359 z"
       id="path2844"
       style="fill:#000000;fill-opacity:1;fill-rule:evenodd;stroke:#000000;stroke-width:5;stroke-linejoin:miter;stroke-miterlimit:4;stroke-dasharray:none;stroke-dashoffset:0;stroke-opacity:1" />
    <path
       d="m 401.68149,364.77952 c -10.32897,-15.764 11.77223,-31.07095 22.58101,-15.63925 3.8007,5.42627 3.81101,7.08743 0.0886,14.28571 -5.34992,10.34563 -16.34753,11.00227 -22.66963,1.35354 z"
       id="path2846"
       style="fill:#000000;fill-opacity:1;fill-rule:evenodd;stroke:#000000;stroke-width:5;stroke-linejoin:miter;stroke-miterlimit:4;stroke-dasharray:none;stroke-dashoffset:0;stroke-opacity:1" />
    <path
       d="m 346.61574,322.70607 c -1.2844,-1.41925 -1.07775,-3.94536 0.40206,-4.91497 1.33203,-0.87278 2.80415,-0.65372 4.06235,0.60448 1.10671,1.10671 0.93193,2.8768 -0.40837,4.13594 -1.42725,1.34084 -2.94159,1.406 -4.05604,0.17455 z"
       id="path2848"
       style="fill:#000000;fill-opacity:1;fill-rule:evenodd;stroke:#000000;stroke-width:5;stroke-linejoin:miter;stroke-miterlimit:4;stroke-dasharray:none;stroke-dashoffset:0;stroke-opacity:1" />
    <path
       d="m 374.06411,273.09755 -1.76776,-0.94327 1.58746,-0.0212 c 1.0208,-0.0136 1.70114,0.27507 1.90592,0.80873 0.45741,1.19198 0.25129,1.21058 -1.72562,0.15571 z"
       id="path2850"
       style="fill:#000000;fill-opacity:1;fill-rule:evenodd;stroke:#000000;stroke-width:5;stroke-linejoin:miter;stroke-miterlimit:4;stroke-dasharray:none;stroke-dashoffset:0;stroke-opacity:1" />
    <path
       d="m 437.57745,440.97799 c 0.38286,-0.15449 0.63135,-1.21558 0.63135,-2.69596 0,-1.48037 -0.24849,-2.54147 -0.63135,-2.69595 -0.34724,-0.14012 9.83321,-0.2727 22.62322,-0.29463 l 23.25456,-0.0399 1.33744,2.72698 1.33743,2.72698 -1.10595,0.29658 c -1.34355,0.36029 -48.34018,0.3364 -47.4467,-0.0241 z"
       id="path2852"
       style="fill:#000000;fill-opacity:1;fill-rule:evenodd;stroke:#000000;stroke-width:5;stroke-linejoin:miter;stroke-miterlimit:4;stroke-dasharray:none;stroke-dashoffset:0;stroke-opacity:1" />
    <path
       d="m 432.28468,441.00734 c 0.16783,-0.16783 0.60346,-0.18578 0.96806,-0.0399 0.40291,0.16123 0.28323,0.28091 -0.30515,0.30515 -0.53244,0.0219 -0.83075,-0.0975 -0.66291,-0.26528 z"
       id="path2854"
       style="fill:#d40000;fill-opacity:1;fill-rule:evenodd;stroke:#000000;stroke-width:5;stroke-linejoin:miter;stroke-miterlimit:4;stroke-dasharray:none;stroke-dashoffset:0;stroke-opacity:1" />
    <path
       d="m 166.47776,511.16594 c -67.089858,-0.32951 -124.889793,-1.54538 -129.402825,-2.72209 -2.655622,-0.69242 -4.676447,-2.58625 -6.310614,-5.91404 -1.214902,-2.47401 -1.413985,-3.4875 -1.409246,-7.17416 0.0048,-3.73636 0.206789,-4.71936 1.557435,-7.57948 5.403029,-11.44143 62.64061,-111.64285 166.39759,-291.2994 l 35.0765,-60.73542 h 33.5212 33.5212 l -0.74212,1.13642 c -3.46383,5.30419 -65.44128,112.00653 -108.49686,186.79161 -57.06024,99.1104 -65.21072,113.82034 -66.66423,120.31531 -0.53108,2.37311 -0.49539,2.96074 0.27893,4.59249 0.48836,1.02915 1.50385,2.18969 2.25665,2.57897 4.53341,2.34432 49.65887,2.96445 191.93928,2.63767 127.527,-0.29288 175.2534,-1.05649 180.04941,-2.88072 3.95577,-1.50464 3.20628,-3.83224 -7.31988,-22.73259 -14.90948,-26.77083 -134.1889,-234.78166 -156.49706,-272.91448 -6.14994,-10.51251 -11.18171,-19.20614 -11.18171,-19.31917 0,-0.11303 14.71666,-0.20424 32.70369,-0.20268 l 32.70369,0.003 29.6219,50.37853 c 54.61017,92.87655 129.4501,221.55141 154.88468,266.29863 16.79919,29.55494 20.53731,37.49938 21.16447,44.98006 0.35163,4.19395 -0.3276,6.31537 -2.79272,8.72247 -1.55518,1.51859 -2.57236,2.00439 -5.42169,2.58932 -11.17961,2.29504 -57.28393,2.80299 -242.40843,2.67073 -85.00434,-0.0607 -164.66749,-0.16009 -177.02924,-0.22081 v 0 z"
       id="path2856"
       style="fill:#d40000;fill-opacity:1;fill-rule:evenodd;stroke:none" />
    <path
       d="m 234.12096,133.00228 c 0,-0.29396 39.80875,-68.714249 46.46305,-79.857213 11.9081,-19.940695 15.8397,-25.968684 19.67304,-30.162968 7.54446,-8.254838 16.37455,-7.061229 22.93563,3.100329 6.21836,9.630759 63.46131,106.012162 63.46131,106.851422 0,0.1538 -14.71666,0.26816 -32.70369,0.25413 l -32.70368,-0.0255 -4.99491,-7.8441 -4.99489,-7.84409 -5.10663,7.83466 -5.10663,7.83467 -33.4613,0.035 c -18.40371,0.0192 -33.4613,-0.0601 -33.4613,-0.17629 z"
       id="path2858"
       style="fill:#d40000;fill-opacity:1;fill-rule:evenodd;stroke:none" />
  </g>
  <metadata
     id="metadata837">
    <rdf:RDF>
      <cc:Work
         rdf:about="">
        <dc:title>Pericolo caduta massi</dc:title>
        <cc:license
           rdf:resource="http://creativecommons.org/publicdomain/zero/1.0/" />
      </cc:Work>
      <cc:License
         rdf:about="http://creativecommons.org/publicdomain/zero/1.0/">
        <cc:permits
           rdf:resource="http://creativecommons.org/ns#Reproduction" />
        <cc:permits
           rdf:resource="http://creativecommons.org/ns#Distribution" />
        <cc:permits
           rdf:resource="http://creativecommons.org/ns#DerivativeWorks" />
      </cc:License>
    </rdf:RDF>
  </metadata>
</svg>
