<?xml version="1.0" encoding="UTF-8" standalone="no"?>
<svg
   xmlns:dc="http://purl.org/dc/elements/1.1/"
   xmlns:cc="http://creativecommons.org/ns#"
   xmlns:rdf="http://www.w3.org/1999/02/22-rdf-syntax-ns#"
   xmlns:svg="http://www.w3.org/2000/svg"
   xmlns="http://www.w3.org/2000/svg"
   xmlns:sodipodi="http://sodipodi.sourceforge.net/DTD/sodipodi-0.dtd"
   xmlns:inkscape="http://www.inkscape.org/namespaces/inkscape"
   id="svg2"
   height="600"
   width="600"
   version="1.0"
   sodipodi:docname="direzione_obbligatoria_sx.svg"
   inkscape:version="0.92.5 (2060ec1f9f, 2020-04-08)">
  <sodipodi:namedview
     id="namedview11"
     pagecolor="#ffffff"
     bordercolor="#666666"
     borderopacity="1.0"
     inkscape:pageshadow="2"
     inkscape:pageopacity="0.0"
     inkscape:pagecheckerboard="0"
     showgrid="false"
     inkscape:zoom="1.0116667"
     inkscape:cx="300.00001"
     inkscape:cy="300"
     inkscape:window-width="1440"
     inkscape:window-height="835"
     inkscape:window-x="0"
     inkscape:window-y="0"
     inkscape:window-maximized="1"
     inkscape:current-layer="svg2" />
  <metadata
     id="metadata12">
    <rdf:RDF>
      <cc:Work
         rdf:about="">
        <dc:format>image/svg+xml</dc:format>
        <dc:type
           rdf:resource="http://purl.org/dc/dcmitype/StillImage" />
        <cc:license
           rdf:resource="http://creativecommons.org/publicdomain/zero/1.0/" />
        <dc:title></dc:title>
      </cc:Work>
      <cc:License
         rdf:about="http://creativecommons.org/publicdomain/zero/1.0/">
        <cc:permits
           rdf:resource="http://creativecommons.org/ns#Reproduction" />
        <cc:permits
           rdf:resource="http://creativecommons.org/ns#Distribution" />
        <cc:permits
           rdf:resource="http://creativecommons.org/ns#DerivativeWorks" />
      </cc:License>
    </rdf:RDF>
  </metadata>
  <defs
     id="defs4" />
  <g
     transform="matrix(2.9999992,0,0,2.9999992,-776.09446,52.48768)"
     id="g1882" />
  <g
     transform="matrix(2.9999992,0,0,2.9999992,-471.70576,24.4905)"
     id="g2461" />
  <path
     id="path2683"
     style="fill:#000000;fill-opacity:1;fill-rule:evenodd;stroke:none"
     d="m 600.00001,300 c 0.0277,165.67729 -134.29498,300 -300,300 C 134.29497,600 -0.02772571,465.67729 4.2927282e-6,300 -0.02769571,134.3227 134.29497,0 300.00001,0 c 165.70502,0 300.02773,134.3227 300,300 l 0,0 z" />
  <path
     id="path2685"
     style="fill:#ffffff;fill-opacity:1;fill-rule:evenodd;stroke:none"
     d="m 596.99995,299.94978 c 0,164.02853 -132.97139,296.99993 -296.99993,296.99993 -164.02854,0 -296.9999357,-132.9714 -296.9999357,-296.99993 0,-164.02854 132.9713957,-296.99994 296.9999357,-296.99994 164.02854,0 296.99993,132.9714 296.99993,296.99994 l 0,0 z" />
  <path
     id="path1877"
     d="m 300.00001,8.94985 c -160.71485,0 -290.9999157,130.28507 -290.9999157,290.99992 0,160.71485 130.2850757,290.99989 290.9999157,290.99992 160.71485,0 290.99989,-130.28507 290.99992,-290.99992 0,-160.71486 -130.28507,-290.99992 -290.99992,-290.99992 z"
     style="fill:#00408b;fill-opacity:1;fill-rule:evenodd;stroke:none" />
  <path
     id="path1889"
     d="m 541.48236,339.8845 h -271.484 c -2.5213,0 -4.567,2.0457 -4.567,4.55006 0,0.59374 0.1209,1.17621 0.3124,1.68271 l 24.357,72.01868 c 0.3348,1.1762 0.529,2.41713 0.529,3.69463 0,7.18949 -5.8416,13.01424 -13.0198,13.01424 -2.5438,0 -4.9075,-0.72598 -6.9138,-1.98942 L 58.51766,299.60648 270.69336,167.03853 c 2.0063,-1.26345 4.37,-1.98381 6.9138,-1.98381 7.1782,0 13.0198,5.81913 13.0198,13.01424 0,1.28031 -0.1914,2.50719 -0.529,3.67776 l -24.357,71.3968 c -0.1914,0.51774 -0.3124,1.09461 -0.3124,1.67706 0,2.52126 2.0457,4.5557 4.567,4.5557 h 271.484 v 80.50822"
     style="fill:#ffffff"
     inkscape:connector-curvature="0" />
</svg>
