<?xml version="1.0" encoding="UTF-8" standalone="no"?>
<svg
   xmlns:dc="http://purl.org/dc/elements/1.1/"
   xmlns:cc="http://creativecommons.org/ns#"
   xmlns:rdf="http://www.w3.org/1999/02/22-rdf-syntax-ns#"
   xmlns:svg="http://www.w3.org/2000/svg"
   xmlns="http://www.w3.org/2000/svg"
   id="svg2"
   height="600"
   width="600"
   version="1.0">
  <metadata
     id="metadata12">
    <rdf:RDF>
      <cc:Work
         rdf:about="">
        <dc:format>image/svg+xml</dc:format>
        <dc:type
           rdf:resource="http://purl.org/dc/dcmitype/StillImage" />
        <dc:title></dc:title>
      </cc:Work>
    </rdf:RDF>
  </metadata>
  <defs
     id="defs4" />
  <g
     transform="matrix(2.9999992,0,0,2.9999992,-776.09446,52.48768)"
     id="g1882" />
  <g
     transform="matrix(2.9999992,0,0,2.9999992,-471.70576,24.4905)"
     id="g2461" />
  <path
     id="path2683"
     style="fill:#000000;fill-opacity:1;fill-rule:evenodd;stroke:none"
     d="m 600.00001,300 c 0.0277,165.67729 -134.29498,300 -300,300 C 134.29497,600 -0.02772571,465.67729 4.2927282e-6,300 -0.02769571,134.3227 134.29497,0 300.00001,0 c 165.70502,0 300.02773,134.3227 300,300 l 0,0 z" />
  <path
     id="path2685"
     style="fill:#ffffff;fill-opacity:1;fill-rule:evenodd;stroke:none"
     d="m 596.99995,299.94978 c 0,164.02853 -132.97139,296.99993 -296.99993,296.99993 -164.02854,0 -296.9999357,-132.9714 -296.9999357,-296.99993 0,-164.02854 132.9713957,-296.99994 296.9999357,-296.99994 164.02854,0 296.99993,132.9714 296.99993,296.99994 l 0,0 z" />
  <path
     id="path1877"
     d="m 300.00001,8.94985 c -160.71485,0 -290.9999157,130.28507 -290.9999157,290.99992 0,160.71485 130.2850757,290.99989 290.9999157,290.99992 160.71485,0 290.99989,-130.28507 290.99992,-290.99992 0,-160.71486 -130.28507,-290.99992 -290.99992,-290.99992 z"
     style="fill:#00408b;fill-opacity:1;fill-rule:evenodd;stroke:none" />
  <path
     id="path1889"
     d="m 339.93474,541.43212 0,-271.484 c 0,-2.5213 2.0457,-4.567 4.55006,-4.567 0.59374,0 1.17621,0.1209 1.68271,0.3124 l 72.01868,24.357 c 1.1762,0.3348 2.41713,0.529 3.69463,0.529 7.18949,0 13.01424,-5.8416 13.01424,-13.0198 0,-2.5438 -0.72598,-4.9075 -1.98942,-6.9138 L 299.65672,58.46742 167.08877,270.64312 c -1.26345,2.0063 -1.98381,4.37 -1.98381,6.9138 0,7.1782 5.81913,13.0198 13.01424,13.0198 1.28031,0 2.50719,-0.1914 3.67776,-0.529 l 71.3968,-24.357 c 0.51774,-0.1914 1.09461,-0.3124 1.67706,-0.3124 2.52126,0 4.5557,2.0457 4.5557,4.567 l 0,271.484 80.50822,0"
     style="fill:#ffffff" />
</svg>
