<?xml version="1.0" encoding="UTF-8" standalone="no"?>
<!-- Created with Inkscape (http://www.inkscape.org/) -->

<svg
   xmlns:dc="http://purl.org/dc/elements/1.1/"
   xmlns:cc="http://creativecommons.org/ns#"
   xmlns:rdf="http://www.w3.org/1999/02/22-rdf-syntax-ns#"
   xmlns:svg="http://www.w3.org/2000/svg"
   xmlns="http://www.w3.org/2000/svg"
   xmlns:sodipodi="http://sodipodi.sourceforge.net/DTD/sodipodi-0.dtd"
   xmlns:inkscape="http://www.inkscape.org/namespaces/inkscape"
   version="1.0"
   width="200"
   height="200"
   id="svg2"
   sodipodi:version="0.32"
   inkscape:version="0.92.5 (2060ec1f9f, 2020-04-08)"
   sodipodi:docname="divieto_transito_peso.svg"
   inkscape:output_extension="org.inkscape.output.svg.inkscape"
   sodipodi:modified="true">
  <metadata
     id="metadata9">
    <rdf:RDF>
      <cc:Work
         rdf:about="">
        <dc:format>image/svg+xml</dc:format>
        <dc:type
           rdf:resource="http://purl.org/dc/dcmitype/StillImage" />
        <cc:license
           rdf:resource="http://creativecommons.org/publicdomain/zero/1.0/" />
        <dc:title></dc:title>
      </cc:Work>
      <cc:License
         rdf:about="http://creativecommons.org/publicdomain/zero/1.0/">
        <cc:permits
           rdf:resource="http://creativecommons.org/ns#Reproduction" />
        <cc:permits
           rdf:resource="http://creativecommons.org/ns#Distribution" />
        <cc:permits
           rdf:resource="http://creativecommons.org/ns#DerivativeWorks" />
      </cc:License>
    </rdf:RDF>
  </metadata>
  <sodipodi:namedview
     inkscape:window-height="835"
     inkscape:window-width="1440"
     inkscape:pageshadow="2"
     inkscape:pageopacity="0.0"
     guidetolerance="10.0"
     gridtolerance="10.0"
     objecttolerance="10.0"
     borderopacity="1.0"
     bordercolor="#666666"
     pagecolor="#ffffff"
     id="base"
     inkscape:zoom="3.035"
     inkscape:cx="100"
     inkscape:cy="100"
     inkscape:window-x="0"
     inkscape:window-y="0"
     inkscape:current-layer="svg2"
     showgrid="false"
     inkscape:window-maximized="1"
     inkscape:pagecheckerboard="0" />
  <defs
     id="defs5" />
  <path
     d="M 177.18833 110.61008 A 85.676392 85.676392 0 1 1  5.8355484,110.61008 A 85.676392 85.676392 0 1 1  177.18833 110.61008 z"
     transform="matrix(1.167183,0,0,1.167183,-6.811181,-29.1022)"
     style="fill:black;fill-opacity:1;fill-rule:evenodd;stroke:none;stroke-width:6.5;stroke-linecap:butt;stroke-linejoin:round;stroke-miterlimit:4;stroke-dasharray:none"
     id="path1873" />
  <path
     d="m 199,100.02321 a 99.000004,99.000004 0 0 1 -198.00000256,0 99.000004,99.000004 0 1 1 198.00000256,0 z"
     style="fill:#ffffff;fill-opacity:1;fill-rule:evenodd;stroke:none"
     id="path1875"
     inkscape:connector-curvature="0" />
  <path
     d="m 197.00001,100.03004 a 97.000016,97.000023 0 0 1 -194.0000227,0 97.000016,97.000023 0 1 1 194.0000227,0 z"
     style="fill:#d40000;fill-opacity:1;fill-rule:evenodd;stroke:none"
     id="path1877"
     inkscape:connector-curvature="0" />
  <path
     sodipodi:type="arc"
     style="fill:#ffffff;fill-opacity:1;fill-rule:evenodd;stroke:none"
     id="path1874"
     sodipodi:cx="76.92308"
     sodipodi:cy="89.655174"
     sodipodi:rx="40.318302"
     sodipodi:ry="34.482758"
     d="m 117.24138,89.655174 a 40.318302,34.482758 0 1 1 -80.636602,0 40.318302,34.482758 0 1 1 80.636602,0 z"
     transform="matrix(1.785789,0,0,2.088,-37.368392,-87.199999)" />
  <g
     aria-label="X,x t."
     transform="matrix(0.8929381,0,0,1,-3.811165,2)"
     style="font-style:normal;font-weight:normal;font-size:40px;line-height:1.25;font-family:sans-serif;letter-spacing:0px;word-spacing:0px;fill:#000000;fill-opacity:1;stroke:none"
     id="flowRoot1028">
    <path
       d="M 77.483072,120.3032 66.910156,99.850079 56.337239,120.3032 H 47.003906 L 61.587239,93.287579 48.207031,68.933413 h 9.333333 l 9.369792,18.156249 9.333333,-18.156249 h 9.296874 L 72.743489,93.287579 86.743488,120.3032 Z"
       style="font-style:normal;font-variant:normal;font-weight:bold;font-stretch:condensed;font-size:74.66666412px;font-family:'Liberation Sans Narrow';-inkscape-font-specification:'Liberation Sans Narrow Bold Condensed'"
       id="path1036"
       inkscape:connector-curvature="0" />
    <path
       d="m 100.23307,117.89695 q 0,2.44271 -0.255207,4.44792 -0.21875,2.00521 -0.65625,3.68229 -0.401042,1.71354 -1.020833,3.13542 -0.583334,1.42187 -1.3125,2.69791 h -5.541667 q 0.875,-1.27604 1.567708,-2.69791 0.729167,-1.42188 1.276042,-2.91667 0.546875,-1.49479 0.838542,-2.98958 0.291666,-1.49479 0.291666,-2.95313 h -3.864583 v -11.11979 h 8.677082 z"
       style="font-style:normal;font-variant:normal;font-weight:bold;font-stretch:condensed;font-size:74.66666412px;font-family:'Liberation Sans Narrow';-inkscape-font-specification:'Liberation Sans Narrow Bold Condensed'"
       id="path1038"
       inkscape:connector-curvature="0" />
    <path
       d="m 128.81641,120.3032 -7.54688,-14.29166 -7.58333,14.29166 h -8.96875 L 116.56641,99.922995 105.30078,80.855288 h 9.07813 l 6.89062,12.906249 6.89063,-12.906249 h 9.11458 l -11.26563,18.958332 11.92188,20.48958 z"
       style="font-style:normal;font-variant:normal;font-weight:bold;font-stretch:condensed;font-size:74.66666412px;font-family:'Liberation Sans Narrow';-inkscape-font-specification:'Liberation Sans Narrow Bold Condensed'"
       id="path1040"
       inkscape:connector-curvature="0" />
    <path
       d="m 167.9362,120.95945 q -3.71875,0 -5.72396,-2.44271 -1.96875,-2.47916 -1.96875,-7.47395 V 87.782371 h -4.11979 v -6.927083 h 4.52083 l 2.625,-9.260417 h 5.28646 v 9.260417 h 6.125 v 6.927083 h -6.125 v 20.489579 q 0,2.88021 0.875,4.26563 0.91146,1.34896 2.77083,1.34896 0.76563,0 1.38542,-0.14584 0.65625,-0.14583 1.45833,-0.36458 v 6.34375 q -1.56771,0.61979 -3.31771,0.91146 -1.71354,0.32812 -3.79166,0.32812 z"
       style="font-style:normal;font-variant:normal;font-weight:bold;font-stretch:condensed;font-size:74.66666412px;font-family:'Liberation Sans Narrow';-inkscape-font-specification:'Liberation Sans Narrow Bold Condensed'"
       id="path1042"
       inkscape:connector-curvature="0" />
    <path
       d="m 179.93098,120.3032 v -11.11979 h 8.64063 v 11.11979 z"
       style="font-style:normal;font-variant:normal;font-weight:bold;font-stretch:condensed;font-size:74.66666412px;font-family:'Liberation Sans Narrow';-inkscape-font-specification:'Liberation Sans Narrow Bold Condensed'"
       id="path1044"
       inkscape:connector-curvature="0" />
  </g>
</svg>
