<?xml version="1.0" encoding="UTF-8" standalone="no"?>
<!-- Created with Inkscape (http://www.inkscape.org/) -->

<svg
   version="1.0"
   width="200"
   height="200"
   id="svg2"
   sodipodi:version="0.32"
   inkscape:version="1.1 (c68e22c387, 2021-05-23)"
   sodipodi:docname="limite_velocità_30.svg"
   inkscape:output_extension="org.inkscape.output.svg.inkscape"
   sodipodi:modified="true"
   xmlns:inkscape="http://www.inkscape.org/namespaces/inkscape"
   xmlns:sodipodi="http://sodipodi.sourceforge.net/DTD/sodipodi-0.dtd"
   xmlns="http://www.w3.org/2000/svg"
   xmlns:svg="http://www.w3.org/2000/svg"
   xmlns:rdf="http://www.w3.org/1999/02/22-rdf-syntax-ns#"
   xmlns:cc="http://creativecommons.org/ns#"
   xmlns:dc="http://purl.org/dc/elements/1.1/">
  <metadata
     id="metadata9">
    <rdf:RDF>
      <cc:Work
         rdf:about="">
        <dc:format>image/svg+xml</dc:format>
        <dc:type
           rdf:resource="http://purl.org/dc/dcmitype/StillImage" />
        <cc:license
           rdf:resource="http://creativecommons.org/publicdomain/zero/1.0/" />
      </cc:Work>
      <cc:License
         rdf:about="http://creativecommons.org/publicdomain/zero/1.0/">
        <cc:permits
           rdf:resource="http://creativecommons.org/ns#Reproduction" />
        <cc:permits
           rdf:resource="http://creativecommons.org/ns#Distribution" />
        <cc:permits
           rdf:resource="http://creativecommons.org/ns#DerivativeWorks" />
      </cc:License>
    </rdf:RDF>
  </metadata>
  <sodipodi:namedview
     inkscape:window-height="1001"
     inkscape:window-width="1920"
     inkscape:pageshadow="2"
     inkscape:pageopacity="0.0"
     guidetolerance="10.0"
     gridtolerance="10.0"
     objecttolerance="10.0"
     borderopacity="1.0"
     bordercolor="#666666"
     pagecolor="#ffffff"
     id="base"
     inkscape:zoom="3.915"
     inkscape:cx="99.872286"
     inkscape:cy="100"
     inkscape:window-x="-9"
     inkscape:window-y="-9"
     inkscape:current-layer="svg2"
     showgrid="false"
     inkscape:window-maximized="1"
     inkscape:pagecheckerboard="0" />
  <defs
     id="defs5" />
  <path
     d="M 177.18833 110.61008 A 85.676392 85.676392 0 1 1  5.8355484,110.61008 A 85.676392 85.676392 0 1 1  177.18833 110.61008 z"
     transform="matrix(1.167183,0,0,1.167183,-6.811181,-29.1022)"
     style="fill:black;fill-opacity:1;fill-rule:evenodd;stroke:none;stroke-width:6.5;stroke-linecap:butt;stroke-linejoin:round;stroke-miterlimit:4;stroke-dasharray:none"
     id="path1873" />
  <path
     d="m 199,100.02321 a 99.000004,99.000004 0 0 1 -198.00000256,0 99.000004,99.000004 0 1 1 198.00000256,0 z"
     style="fill:#ffffff;fill-opacity:1;fill-rule:evenodd;stroke:none"
     id="path1875"
     inkscape:connector-curvature="0" />
  <path
     d="m 197.00001,100.03004 a 97.000016,97.000023 0 0 1 -194.0000227,0 97.000016,97.000023 0 1 1 194.0000227,0 z"
     style="fill:#d40000;fill-opacity:1;fill-rule:evenodd;stroke:none"
     id="path1877"
     inkscape:connector-curvature="0" />
  <path
     sodipodi:type="arc"
     style="fill:#ffffff;fill-opacity:1;fill-rule:evenodd;stroke:none"
     id="path1874"
     sodipodi:cx="76.92308"
     sodipodi:cy="89.655174"
     sodipodi:rx="40.318302"
     sodipodi:ry="34.482758"
     d="m 117.24138,89.655174 a 40.318302,34.482758 0 1 1 -80.636602,0 40.318302,34.482758 0 1 1 80.636602,0 z"
     transform="matrix(1.785789,0,0,2.088,-37.368392,-87.199999)" />
  <g
     id="g1878"
     transform="translate(-5.8940026,-2.436756)">
    <g
       transform="matrix(3.610701,0,0,3.610701,-256.40532,-201.91307)"
       style="font-size:40px;font-style:normal;font-variant:normal;font-weight:normal;font-stretch:normal;text-align:center;line-height:125%;letter-spacing:0px;word-spacing:0px;writing-mode:lr-tb;text-anchor:middle;fill:#000000;fill-opacity:1;stroke:none;font-family:'Transport Narrow (Alfabeto Stre';-inkscape-font-specification:'Transport Narrow (Alfabeto Stre'"
       id="flowRoot4383">
      <g
         transform="matrix(0.97068049,0,0,0.97068049,28.238974,7.4378716)"
         style="fill:#000000;font-family:'Transport Narrow (Alfabeto Stre';-inkscape-font-specification:'Transport Narrow (Alfabeto Stre'"
         id="flowRoot4540">
        <path
           d="m 69.223639,78.744865 c 2.591134,1.354185 3.886705,3.216162 3.886718,5.585937 -1.3e-5,1.848971 -0.735689,3.411469 -2.207031,4.6875 -1.09376,0.989592 -2.428394,1.484383 -4.003906,1.484375 -1.510422,8e-6 -2.825525,-0.481762 -3.945313,-1.445312 -1.236981,-1.067698 -1.959636,-2.558582 -2.167968,-4.472656 l 4.511718,-1.054688 c 0.02604,1.757826 0.520828,2.636731 1.484375,2.636719 0.403639,1.2e-5 0.761711,-0.208321 1.074219,-0.625 0.325513,-0.403633 0.488273,-0.924466 0.488281,-1.5625 -8e-6,-1.835922 -1.334642,-2.675764 -4.003906,-2.519531 l -0.03906,-4.316407 c 2.13541,-0.325499 3.281242,-1.341123 3.4375,-3.046875 0.117179,-0.963516 -0.214852,-1.445287 -0.996094,-1.445312 -1.041673,2.5e-5 -1.64063,0.86591 -1.796875,2.597656 l -4.121094,-0.585937 c 0.156249,-2.161433 0.833332,-3.815077 2.03125,-4.960938 1.067704,-1.015595 2.337234,-1.523407 3.808594,-1.523437 1.302075,3e-5 2.447907,0.384144 3.4375,1.152343 1.445301,1.11982 2.167956,2.591173 2.167969,4.414063 -1.3e-5,2.096376 -1.015637,3.763041 -3.046875,5 z"
           id="path4684"
           inkscape:connector-curvature="0" />
        <path
           d="m 80.96875,74.369865 c 0.364576,-1.3281 0.826815,-1.992162 1.386719,-1.992188 0.559887,2.6e-5 1.028636,0.664088 1.40625,1.992188 0.351552,1.289085 0.527333,2.877625 0.527343,4.765625 -1e-5,1.861996 -0.175791,3.437516 -0.527343,4.726562 -0.377614,1.328138 -0.846363,1.9922 -1.40625,1.992188 -0.585946,1.2e-5 -1.048185,-0.651029 -1.386719,-1.953125 -0.377611,-1.34113 -0.566413,-2.903629 -0.566406,-4.6875 -7e-6,-1.809875 0.188795,-3.424457 0.566406,-4.84375 z m -3.535156,-2.792969 c -1.380211,2.500024 -2.070314,4.993511 -2.070313,7.480469 -10e-7,2.500017 0.690102,4.980483 2.070313,7.441406 1.367182,2.473968 3.037103,3.710946 5.009765,3.710938 1.972646,8e-6 3.668608,-1.23697 5.087891,-3.710938 1.302068,-2.343736 1.953109,-4.78514 1.953125,-7.324219 -1.6e-5,-2.539041 -0.651057,-5.07159 -1.953125,-7.597656 -1.315116,-2.48695 -2.985037,-3.730438 -5.009766,-3.730469 -2.024746,3.1e-5 -3.720708,1.243519 -5.08789,3.730469 z"
           id="path4686"
           inkscape:connector-curvature="0" />
      </g>
    </g>
  </g>
</svg>
