<?xml version="1.0" encoding="UTF-8" standalone="no"?>
<svg
   id="svg2"
   height="600"
   width="600"
   version="1.0"
   sodipodi:docname="senso_unico_alternato.svg"
   inkscape:version="1.1 (c68e22c387, 2021-05-23)"
   xmlns:inkscape="http://www.inkscape.org/namespaces/inkscape"
   xmlns:sodipodi="http://sodipodi.sourceforge.net/DTD/sodipodi-0.dtd"
   xmlns="http://www.w3.org/2000/svg"
   xmlns:svg="http://www.w3.org/2000/svg"
   xmlns:rdf="http://www.w3.org/1999/02/22-rdf-syntax-ns#"
   xmlns:cc="http://creativecommons.org/ns#"
   xmlns:dc="http://purl.org/dc/elements/1.1/">
  <sodipodi:namedview
     id="namedview9"
     pagecolor="#ffffff"
     bordercolor="#666666"
     borderopacity="1.0"
     inkscape:pageshadow="2"
     inkscape:pageopacity="0.0"
     inkscape:pagecheckerboard="0"
     showgrid="false"
     inkscape:zoom="1.305"
     inkscape:cx="299.61686"
     inkscape:cy="300"
     inkscape:window-width="1920"
     inkscape:window-height="1001"
     inkscape:window-x="-9"
     inkscape:window-y="-9"
     inkscape:window-maximized="1"
     inkscape:current-layer="svg2" />
  <metadata
     id="metadata12">
    <rdf:RDF>
      <cc:Work
         rdf:about="">
        <dc:format>image/svg+xml</dc:format>
        <dc:type
           rdf:resource="http://purl.org/dc/dcmitype/StillImage" />
        <cc:license
           rdf:resource="http://creativecommons.org/publicdomain/zero/1.0/" />
      </cc:Work>
      <cc:License
         rdf:about="http://creativecommons.org/publicdomain/zero/1.0/">
        <cc:permits
           rdf:resource="http://creativecommons.org/ns#Reproduction" />
        <cc:permits
           rdf:resource="http://creativecommons.org/ns#Distribution" />
        <cc:permits
           rdf:resource="http://creativecommons.org/ns#DerivativeWorks" />
      </cc:License>
    </rdf:RDF>
  </metadata>
  <defs
     id="defs4" />
  <rect
     ry="0"
     rx="0"
     y="1.5"
     x="1.5"
     height="597"
     width="597"
     id="rect2380"
     style="fill:#00408b;fill-opacity:1;fill-rule:nonzero;stroke:#000000;stroke-width:3;stroke-linecap:round;stroke-linejoin:round;stroke-miterlimit:2;stroke-opacity:1;stroke-dasharray:none;stroke-dashoffset:0" />
  <path
     style="fill:#d40000;fill-opacity:1"
     d="M 188.99967,480.34781 99.90592,321.87906 c -0.84399,-1.50118 -1.34375,-3.25659 -1.34375,-5.15625 0,-5.36062 3.91448,-9.71875 8.75,-9.71875 0.86041,-10e-6 1.71258,0.13931 2.53125,0.25 l 47.84375,6.46875 c 0.37276,0.0504 0.82731,0.0937 1.21875,0.0937 1.69445,1e-5 3.0625,-1.52342 3.0625,-3.40625 l 0,-190.75 54.0625,0 0,190.75 c 0,1.88283 1.36805,3.40626 3.0625,3.40625 0.39144,0 0.81474,-0.0433 1.1875,-0.0937 l 47.84375,-6.46875 c 0.81867,-0.11069 1.70208,-0.25001 2.5625,-0.25 4.83552,0 8.71875,4.35813 8.71875,9.71875 0,1.89966 -0.46851,3.65507 -1.3125,5.15625 l -89.09375,158.46875 z"
     id="path2491" />
  <path
     id="rect2969"
     d="m 47.9866,8.00406 c -22.07351,0 -40,17.92649 -40,40 l 0,504 c 0,22.07351 17.92649,40 40,40 l 504,0 c 22.07351,0 40.00003,-17.92648 40,-40 l 0,-504 c 0,-22.07351 -17.92646,-40 -40,-40 l -504,0 z m 0,10 504,0 c 16.70652,0 30,13.29351 30,30 l 0,504 c 3e-5,16.70648 -13.29351,30 -30,30 l -504,0 c -16.70649,0 -30,-13.29351 -30,-30 l 0,-504 c 0,-16.70649 13.29351,-30 30,-30 z"
     style="fill:#ffffff;fill-opacity:1;fill-rule:nonzero;stroke:none" />
  <path
     id="path2486"
     d="M 411.01785,119.66031 321.9241,278.12906 c -0.84399,1.50118 -1.34375,3.25659 -1.34375,5.15625 0,5.36062 3.91448,9.71875 8.75,9.71875 0.86041,1e-5 1.71258,-0.13931 2.53125,-0.25 l 47.84375,-6.46875 c 0.37276,-0.0504 0.82731,-0.0937 1.21875,-0.0937 1.69445,-1e-5 3.0625,1.52342 3.0625,3.40625 l 0,190.75 54.0625,0 0,-190.75 c 0,-1.88283 1.36805,-3.40626 3.0625,-3.40625 0.39144,0 0.81474,0.0434 1.1875,0.0937 l 47.84375,6.46875 c 0.81867,0.11069 1.70208,0.25001 2.5625,0.25 4.83552,0 8.71875,-4.35813 8.71875,-9.71875 0,-1.89966 -0.46851,-3.65507 -1.3125,-5.15625 L 411.01785,119.66031 z"
     style="fill:#ffffff" />
</svg>
