<?xml version="1.0" encoding="UTF-8" standalone="no"?>
<svg
   version="1.0"
   id="svg2"
   height="1010.4002"
   width="1010.4"
   sodipodi:docname="stop.svg"
   inkscape:version="1.1 (c68e22c387, 2021-05-23)"
   xmlns:inkscape="http://www.inkscape.org/namespaces/inkscape"
   xmlns:sodipodi="http://sodipodi.sourceforge.net/DTD/sodipodi-0.dtd"
   xmlns="http://www.w3.org/2000/svg"
   xmlns:svg="http://www.w3.org/2000/svg"
   xmlns:rdf="http://www.w3.org/1999/02/22-rdf-syntax-ns#"
   xmlns:cc="http://creativecommons.org/ns#"
   xmlns:dc="http://purl.org/dc/elements/1.1/">
  <sodipodi:namedview
     id="namedview16"
     pagecolor="#ffffff"
     bordercolor="#666666"
     borderopacity="1.0"
     inkscape:pageshadow="2"
     inkscape:pageopacity="0.0"
     inkscape:pagecheckerboard="0"
     showgrid="false"
     inkscape:zoom="0.77494046"
     inkscape:cx="504.55489"
     inkscape:cy="505.2001"
     inkscape:window-width="1920"
     inkscape:window-height="1001"
     inkscape:window-x="-9"
     inkscape:window-y="-9"
     inkscape:window-maximized="1"
     inkscape:current-layer="svg2" />
  <defs
     id="defs4" />
  <metadata
     id="metadata7">
    <rdf:RDF>
      <cc:Work
         rdf:about="">
        <dc:format>image/svg+xml</dc:format>
        <dc:type
           rdf:resource="http://purl.org/dc/dcmitype/StillImage" />
        <cc:license
           rdf:resource="http://creativecommons.org/publicdomain/zero/1.0/" />
      </cc:Work>
      <cc:License
         rdf:about="http://creativecommons.org/publicdomain/zero/1.0/">
        <cc:permits
           rdf:resource="http://creativecommons.org/ns#Reproduction" />
        <cc:permits
           rdf:resource="http://creativecommons.org/ns#Distribution" />
        <cc:permits
           rdf:resource="http://creativecommons.org/ns#DerivativeWorks" />
      </cc:License>
    </rdf:RDF>
  </metadata>
  <rect
     ry="27.202072"
     rx="249.48199"
     y="3539.2434"
     x="2094.2673"
     height="27.202072"
     width="0"
     id="rect3653"
     style="color:#000000;display:inline;overflow:visible;visibility:visible;fill:#000000;fill-opacity:1;fill-rule:nonzero;stroke:none;stroke-width:0.873544;marker:none" />
  <g
     id="g852">
    <path
       style="fill:#000000;fill-opacity:1;stroke:none"
       d="M 296.0223,1010.2001 0.2,714.378 0.2001,296.0224 296.0221,0.2 l 418.3557,3e-4 295.8222,295.8221 -2e-4,418.3558 -295.822,295.822 z"
       id="path3940" />
    <path
       style="fill:#ffffff;fill-opacity:1;stroke:none"
       d="M 298.0933,1005.2 5.2,712.3068 5.2001,298.0933 298.0932,5.1998 l 414.2135,3e-4 292.8933,292.8932 -2e-4,414.2136 -292.8931,292.8932 z"
       id="path3942" />
    <path
       id="path3944"
       d="M 699.05205,37.2 973.2,311.3479 l -7e-5,387.704 L 699.05209,973.2001 311.3483,973.1997 37.2,699.052 37.2003,311.3479 311.3482,37.1999 Z"
       style="fill:#d40000;fill-opacity:1;stroke:none" />
    <g
       id="flowRoot3091"
       style="font-style:normal;font-variant:normal;font-weight:normal;font-stretch:normal;font-size:40px;line-height:125%;font-family:'Transport Narrow (Alfabeto Stre';-inkscape-font-specification:'Transport Narrow (Alfabeto Stre';text-align:center;letter-spacing:0px;word-spacing:0px;writing-mode:lr-tb;text-anchor:middle;fill:#ffffff;fill-opacity:1;stroke:none"
       transform="matrix(13.203815,0,0,13.203815,-1037.9195,-3097.4684)">
      <g
         style="fill:#ffffff"
         transform="translate(-0.98423032)"
         id="g3117">
        <path
           d="m 89.220696,272.87235 5.399944,5.00801 c 0.304825,0.2613 0.457243,0.58791 0.457253,0.97983 -1e-5,1.00162 -0.493553,1.50242 -1.48063,1.50241 -0.420972,1e-5 -0.762097,-0.14515 -1.023376,-0.43549 -0.566131,-0.59514 -1.030642,-1.19029 -1.393534,-1.78546 l -4.137054,2.504 c 0.653216,1.05969 1.277402,1.91612 1.872561,2.56933 1.248368,1.30645 2.794318,1.95967 4.637856,1.95966 1.843518,10e-6 3.403984,-0.63869 4.681403,-1.91611 1.27739,-1.27739 1.916091,-2.83786 1.916111,-4.68141 -2e-5,-1.84351 -0.609688,-3.38945 -1.829015,-4.63784 l -1.154021,-1.15403 -5.399944,-4.98623 c -0.304842,-0.24675 -0.45726,-0.57699 -0.457253,-0.99073 -7e-6,-0.41366 0.152411,-0.77294 0.457253,-1.0778 0.261281,-0.26126 0.602405,-0.39191 1.023376,-0.39194 0.420955,3e-5 0.762081,0.15245 1.023377,0.45726 0.682241,0.68228 1.146752,1.27018 1.393534,1.76369 l 4.180602,-2.52578 c -0.711297,-1.13221 -1.335484,-1.9814 -1.872562,-2.54755 -1.248385,-1.3064 -2.823368,-1.95963 -4.724951,-1.95966 -1.75644,3e-5 -3.287874,0.62422 -4.594307,1.87257 -1.306441,1.30646 -1.959659,2.86693 -1.959657,4.68139 -2e-6,1.78549 0.624185,3.33145 1.872561,4.63786 z"
           style="fill:#ffffff;stroke:none"
           id="path3109" />
        <path
           d="m 102.2633,260.3632 v 5.29108 h 2.98304 v 19.68367 h 5.8572 v -19.68367 h 2.85238 v -5.29108 z"
           style="fill:#ffffff;stroke:none"
           id="path3111" />
        <path
           d="m 118.00588,264.50026 c -1.19031,2.68548 -1.78546,5.45078 -1.78546,8.29588 0,2.83064 0.59515,5.65399 1.78546,8.47008 1.6403,2.8016 3.58544,4.20238 5.83543,4.20238 2.23545,0 4.07897,-1.40078 5.53059,-4.20238 1.1032,-2.67092 1.6548,-5.43622 1.65481,-8.29588 -1e-5,-2.81608 -0.55161,-5.63944 -1.65481,-8.47008 -1.53871,-2.8451 -3.42579,-4.26766 -5.66124,-4.2677 -2.19192,4e-5 -4.09351,1.4226 -5.70478,4.2677 z m 4.33302,3.2661 c 0.23225,-1.49512 0.67498,-2.24269 1.32822,-2.24273 0.68224,4e-5 1.14675,0.74761 1.39353,2.24273 0.23224,1.65484 0.34837,3.28789 0.34838,4.89914 -1e-5,1.58226 -0.11614,3.32418 -0.34838,5.22575 -0.36291,1.42259 -0.84194,2.13387 -1.43708,2.13385 -0.59517,2e-5 -1.02339,-0.72578 -1.28467,-2.1774 -0.30484,-1.40803 -0.45726,-2.98664 -0.45725,-4.73584 -10e-6,-1.74915 0.15241,-3.53098 0.45725,-5.3455 z"
           style="fill:#ffffff;stroke:none"
           id="path3113" />
        <path
           d="m 135.94763,260.29788 v 25.10539 h 5.57413 v -9.27571 c 2.46772,-0.029 4.44189,-0.87821 5.92252,-2.54756 1.34998,-1.45157 2.02498,-3.24793 2.02499,-5.38905 -1e-5,-2.14108 -0.67501,-3.9447 -2.02499,-5.41084 -1.48063,-1.65478 -3.4548,-2.48219 -5.92252,-2.48223 z m 5.74833,5.11688 c 1.69836,0.0871 2.6056,0.99437 2.72175,2.72175 -0.14518,0.92904 -0.44276,1.62219 -0.89273,2.07941 -0.45002,0.45728 -1.05968,0.67139 -1.82902,0.64233 z"
           style="fill:#ffffff;stroke:none"
           id="path3115" />
      </g>
    </g>
  </g>
</svg>
