<?xml version="1.0" encoding="UTF-8" standalone="no"?>
<!-- Created with Inkscape (http://www.inkscape.org/) -->

<svg
   version="1.0"
   width="834.08563"
   height="734.98938"
   id="svg2"
   sodipodi:version="0.32"
   inkscape:version="1.1 (c68e22c387, 2021-05-23)"
   sodipodi:docname="strettoia_asimmetrica_dx.svg"
   inkscape:output_extension="org.inkscape.output.svg.inkscape"
   xmlns:inkscape="http://www.inkscape.org/namespaces/inkscape"
   xmlns:sodipodi="http://sodipodi.sourceforge.net/DTD/sodipodi-0.dtd"
   xmlns="http://www.w3.org/2000/svg"
   xmlns:svg="http://www.w3.org/2000/svg"
   xmlns:rdf="http://www.w3.org/1999/02/22-rdf-syntax-ns#"
   xmlns:cc="http://creativecommons.org/ns#"
   xmlns:dc="http://purl.org/dc/elements/1.1/">
  <title
     id="title832">Strettoia asimmetrica a destra</title>
  <metadata
     id="metadata12">
    <rdf:RDF>
      <cc:Work
         rdf:about="">
        <dc:format>image/svg+xml</dc:format>
        <dc:type
           rdf:resource="http://purl.org/dc/dcmitype/StillImage" />
        <dc:title>Strettoia asimmetrica a destra</dc:title>
        <cc:license
           rdf:resource="http://creativecommons.org/publicdomain/zero/1.0/" />
      </cc:Work>
      <cc:License
         rdf:about="http://creativecommons.org/publicdomain/zero/1.0/">
        <cc:permits
           rdf:resource="http://creativecommons.org/ns#Reproduction" />
        <cc:permits
           rdf:resource="http://creativecommons.org/ns#Distribution" />
        <cc:permits
           rdf:resource="http://creativecommons.org/ns#DerivativeWorks" />
      </cc:License>
    </rdf:RDF>
  </metadata>
  <sodipodi:namedview
     inkscape:window-height="1001"
     inkscape:window-width="1920"
     inkscape:pageshadow="2"
     inkscape:pageopacity="0.0"
     guidetolerance="10.0"
     gridtolerance="10.0"
     objecttolerance="10.0"
     borderopacity="1.0"
     bordercolor="#666666"
     pagecolor="#ffffff"
     id="base"
     inkscape:zoom="1.0653215"
     inkscape:cx="416.77559"
     inkscape:cy="367.49469"
     inkscape:window-x="-9"
     inkscape:window-y="-9"
     inkscape:current-layer="svg2"
     width="200px"
     height="200px"
     showgrid="false"
     inkscape:showpageshadow="false"
     inkscape:window-maximized="1"
     inkscape:pagecheckerboard="0" />
  <defs
     id="defs4">
    <inkscape:perspective
       sodipodi:type="inkscape:persp3d"
       inkscape:vp_x="0 : 450 : 1"
       inkscape:vp_y="0 : 1000 : 0"
       inkscape:vp_z="900 : 450 : 1"
       inkscape:persp3d-origin="450 : 300 : 1"
       id="perspective10" />
  </defs>
  <g
     id="g830">
    <path
       sodipodi:nodetypes="cscssssssc"
       id="path3084"
       d="M 454.97828,22.43 C 447.54398,9.5545 432.99948,1.5 417.04268,1.5 c -16.2469,0 -30.7968,8.495 -38.3717,21.6152 L 8.0043801,665.1866 c -7.9552,13.7802 -9.1331,31.1377 -0.6229,45.8778 8.1234999,14.0703 22.7545999,22.425 37.9044999,22.425 l 743.51342,0 c 15.1499,0 29.781,-8.3548 37.9045,-22.425 8.5102,-14.74 7.333,-32.098 -0.623,-45.8778 L 454.97828,22.43 z"
       style="fill:#ffffff;fill-opacity:1;fill-rule:nonzero;stroke:#000000;stroke-width:3;stroke-linecap:round;stroke-linejoin:round;stroke-miterlimit:2;stroke-opacity:1;stroke-dasharray:none;stroke-dashoffset:0" />
    <path
       style="fill:#d40000;fill-opacity:1;fill-rule:nonzero;stroke:none"
       d="m 417.05288,16.5053 c 10.9092,0 20.385,5.5528 24.9376,13.4375 l 371.09372,642.75 c 5.549,9.6109 6.2861,21.0698 0.625,30.875 -5.5096,9.5428 -15.2711,14.9062 -24.9063,14.9063 l -743.53122,0 c -9.6352,0 -19.3966,-5.3633 -24.9062,-14.9063 -5.6611,-9.8052 -4.924,-21.2631 0.625,-30.875 L 391.64668,30.6303 c 4.8181,-8.3452 14.3881,-14.125 25.4062,-14.125 z"
       id="path3092" />
    <path
       style="fill:#ffffff;fill-opacity:1;fill-rule:nonzero;stroke:none"
       d="m 417.02168,146.6928 283.93752,491.7813 -567.84372,0 283.9062,-491.7813 z"
       id="path3102" />
    <path
       style="fill:#2b0000;fill-opacity:1;fill-rule:evenodd;stroke:none"
       d="m 343.91781,320.71345 0,267.6875 47.03125,0 0,-267.6875 -47.03125,0 z m 99.21875,0 0,85.28125 36.1875,73.875 0,108.53125 47,0 0,-119.375 -36.15625,-73.90625 0,-74.40625 -47.03125,0 z"
       id="rect2770" />
  </g>
</svg>
