<?xml version="1.0" encoding="UTF-8" standalone="no"?>
<svg
   width="50.035545"
   height="250"
   version="1.1"
   viewBox="0 0 13.238405 66.146303"
   id="svg2351"
   xmlns="http://www.w3.org/2000/svg"
   xmlns:svg="http://www.w3.org/2000/svg">
  <defs
     id="defs2355" />
  <g
     id="g1068">
    <g
       stroke="#000000"
       id="g2339"
       transform="matrix(0.06614174,0,0,0.06614174,0.0031768,13.228348)">
      <rect
         y="-7.1053998e-15"
         width="200"
         height="800"
         fill="#ffffff"
         stroke-width="0.1"
         id="rect2333"
         x="0" />
      <path
         d="m 103.32,696.44 96.699,-96.314 v 199.89 H 0.129 Z"
         stroke-width="0.106"
         id="path2335" />
      <path
         d="M 96.752,103.63 0.053,199.944 V 0.054 h 199.89 z"
         stroke-width="0.106"
         id="path2337" />
    </g>
    <path
       d="M 0.00668231,39.726052 13.23503,26.465294 v 13.13112 L 0.00668231,52.92199 Z"
       stroke="#000000"
       stroke-width="0.00701103"
       id="path2341" />
    <rect
       y="4.1863089e-12"
       width="13.228348"
       height="13.228348"
       fill="#0032e5"
       id="rect2343"
       x="0.0031767974"
       style="fill:#002145;fill-opacity:1;stroke-width:0.0661419" />
    <path
       d="M 10.260438,1.4127876 5.05085,6.6223755 C 5.0024665,6.6707609 4.9239568,6.6707609 4.8759049,6.6227062 4.8645201,6.6113229 4.8556581,6.597813 4.8495961,6.5844232 L 3.9349884,4.7350355 C 3.9188339,4.7060503 3.8987566,4.6785015 3.8742418,4.6539854 3.7362834,4.516027 3.5124134,4.5163511 3.3746667,4.6541177 3.3258527,4.7029284 3.2944301,4.7622198 3.2801699,4.8249618 L 1.7655903,11.453687 8.3810871,9.9260772 C 8.4438311,9.9118322 8.5030129,9.8802882 8.5518252,9.8314752 8.689572,9.6937349 8.6900018,9.469971 8.5518912,9.3318999 8.5273082,9.3073469 8.5001082,9.2874629 8.4711652,9.2714799 L 6.6337481,8.3688429 c -0.0136,-0.00627 -0.026985,-0.015016 -0.038173,-0.026184 -0.04838,-0.04838 -0.048165,-0.1266743 2.642e-4,-0.1750572 L 11.805427,2.9580121 10.260555,1.4131394"
       fill="#ffffff"
       stroke-width="0.0814141"
       id="path2345" />
  </g>
</svg>
