<?xml version="1.0" encoding="UTF-8" standalone="no"?>
<svg
   id="svg892"
   version="1.0"
   width="600"
   height="600"
   sodipodi:docname="divieto_sosta_fermata.svg"
   inkscape:version="1.1 (c68e22c387, 2021-05-23)"
   xmlns:inkscape="http://www.inkscape.org/namespaces/inkscape"
   xmlns:sodipodi="http://sodipodi.sourceforge.net/DTD/sodipodi-0.dtd"
   xmlns="http://www.w3.org/2000/svg"
   xmlns:svg="http://www.w3.org/2000/svg"
   xmlns:rdf="http://www.w3.org/1999/02/22-rdf-syntax-ns#"
   xmlns:cc="http://creativecommons.org/ns#"
   xmlns:dc="http://purl.org/dc/elements/1.1/">
  <sodipodi:namedview
     id="namedview10"
     pagecolor="#ffffff"
     bordercolor="#666666"
     borderopacity="1.0"
     inkscape:pageshadow="2"
     inkscape:pageopacity="0.0"
     inkscape:pagecheckerboard="0"
     showgrid="false"
     inkscape:zoom="1.305"
     inkscape:cx="299.61686"
     inkscape:cy="300"
     inkscape:window-width="1920"
     inkscape:window-height="1001"
     inkscape:window-x="-9"
     inkscape:window-y="-9"
     inkscape:window-maximized="1"
     inkscape:current-layer="svg892" />
  <defs
     id="defs896" />
  <metadata
     id="metadata880">
    <rdf:RDF>
      <cc:Work
         rdf:about="">
        <dc:format>image/svg+xml</dc:format>
        <dc:type
           rdf:resource="http://purl.org/dc/dcmitype/StillImage" />
        <cc:license
           rdf:resource="http://creativecommons.org/publicdomain/zero/1.0/" />
      </cc:Work>
      <cc:License
         rdf:about="http://creativecommons.org/publicdomain/zero/1.0/">
        <cc:permits
           rdf:resource="http://creativecommons.org/ns#Reproduction" />
        <cc:permits
           rdf:resource="http://creativecommons.org/ns#Distribution" />
        <cc:permits
           rdf:resource="http://creativecommons.org/ns#DerivativeWorks" />
      </cc:License>
    </rdf:RDF>
  </metadata>
  <g
     id="g890"
     transform="matrix(0.66666666,0,0,0.66666666,4.2937604e-6,0)"
     fill-rule="evenodd">
    <path
       id="path882"
       d="M900,450c0.04155,248.51594-201.44247,450-450,450-248.55756,0-450.0416-201.48406-450-450-0.041595-248.51595,201.44244-450,450-450,248.55753,0,450.0416,201.48405,450,450z"
       fill="#000" />
    <path
       id="path884"
       d="M895.49989,450c0,246.04279-199.45708,445.49989-445.49989,445.49989s-445.4999-199.4571-445.4999-445.49989c0-246.04281,199.45708-445.4999,445.4999-445.4999,246.04281,0,445.49989,199.45708,445.49989,445.4999z"
       fill="#FFF" />
    <path
       style="stroke-width:16.50000017;stroke-miterlimit:4;stroke-dasharray:none;stroke:#ffffff;stroke-opacity:1"
       id="path886"
       d="m450,139.5c-71.43873,0-137.20299,24.24587-189.6875,64.84375l188.03125,188.03125,189.53125-189.53125c-52.17393-39.73067-117.28303-63.34375-187.875-63.34375zm247.15625,122.625-189.53125,189.53125,188.03125,188.03125c40.59786-52.48452,64.84375-118.24875,64.84375-189.6875,0-70.59199-23.61308-135.70108-63.34375-187.875zm-495.78125,1.84375c-38.86626,51.8521-61.875,116.29032-61.875,186.03125,0,70.59198,23.61308,135.70108,63.34375,187.875l186.21875-186.21875-187.6875-187.6875zm246.96875,246.96875-186.21875,186.21875c52.17392,39.73067,117.28303,63.34375,187.875,63.34375,69.74089,0,134.17916-23.00874,186.03125-61.875l-187.6875-187.6875z"
       fill="#00408b" />
    <path
       id="path888"
       d="M450,13.5c-241.07228,0-436.5,195.42772-436.5,436.5,0,241.07227,195.42774,436.49996,436.5,436.5,241.07227,0,436.49996-195.42773,436.5-436.5,0-241.07229-195.42773-436.5-436.5-436.5zm0,112.5c79.20388,0,151.78722,28.49551,208.09375,75.75l-209.75,209.75-208.15625-208.15625c56.55809-48.17472,129.75243-77.34375,209.8125-77.34375zm248.25,115.90625c47.25449,56.30653,75.75,128.88985,75.75,208.09375,0,80.06011-29.16901,153.2544-77.34375,209.8125l-208.15625-208.15625,209.75-209.75zm-498,1.8125l207.90625,207.96875-206.40625,206.40625c-47.25449-56.30653-75.75-128.88985-75.75-208.09375,0-78.38769,27.86673-150.22374,74.25-206.28125zm248.0625,248.125,207.96875,208.03125c-56.0473,46.34823-127.92655,74.125-206.28125,74.125-79.20388,0-151.78722-28.49551-208.09375-75.75l206.40625-206.40625z"
       fill="#d40000" />
  </g>
</svg>
