<?xml version="1.0" encoding="UTF-8" standalone="no"?>
<!-- Created with Inkscape (http://www.inkscape.org/) -->

<svg
   xmlns:dc="http://purl.org/dc/elements/1.1/"
   xmlns:cc="http://creativecommons.org/ns#"
   xmlns:rdf="http://www.w3.org/1999/02/22-rdf-syntax-ns#"
   xmlns:svg="http://www.w3.org/2000/svg"
   xmlns="http://www.w3.org/2000/svg"
   xmlns:sodipodi="http://sodipodi.sourceforge.net/DTD/sodipodi-0.dtd"
   xmlns:inkscape="http://www.inkscape.org/namespaces/inkscape"
   version="1.0"
   width="834.08563"
   height="734.98938"
   id="svg2"
   sodipodi:version="0.32"
   inkscape:version="0.92.5 (2060ec1f9f, 2020-04-08)"
   sodipodi:docname="materiale_instabile_.svg"
   inkscape:output_extension="org.inkscape.output.svg.inkscape">
  <metadata
     id="metadata12">
    <rdf:RDF>
      <cc:Work
         rdf:about="">
        <dc:format>image/svg+xml</dc:format>
        <dc:type
           rdf:resource="http://purl.org/dc/dcmitype/StillImage" />
        <dc:title></dc:title>
      </cc:Work>
    </rdf:RDF>
  </metadata>
  <sodipodi:namedview
     inkscape:window-height="829"
     inkscape:window-width="1440"
     inkscape:pageshadow="2"
     inkscape:pageopacity="0.0"
     guidetolerance="10.0"
     gridtolerance="10.0"
     objecttolerance="10.0"
     borderopacity="1.0"
     bordercolor="#666666"
     pagecolor="#ffffff"
     id="base"
     inkscape:zoom="0.81769889"
     inkscape:cx="417.04282"
     inkscape:cy="367.49469"
     inkscape:window-x="0"
     inkscape:window-y="0"
     inkscape:current-layer="svg2"
     width="200px"
     height="200px"
     showgrid="false"
     inkscape:showpageshadow="false"
     inkscape:window-maximized="1"
     showguides="true"
     inkscape:guide-bbox="true" />
  <defs
     id="defs4">
    <inkscape:perspective
       sodipodi:type="inkscape:persp3d"
       inkscape:vp_x="0 : 450 : 1"
       inkscape:vp_y="0 : 1000 : 0"
       inkscape:vp_z="900 : 450 : 1"
       inkscape:persp3d-origin="450 : 300 : 1"
       id="perspective17" />
  </defs>
  <path
     sodipodi:nodetypes="cscssssssc"
     id="path3084"
     d="M 454.97828,22.43 C 447.54398,9.5545 432.99948,1.5 417.04268,1.5 c -16.2469,0 -30.7968,8.495 -38.3717,21.6152 L 8.0043801,665.1866 c -7.9552,13.7802 -9.1331,31.1377 -0.6229,45.8778 8.1234999,14.0703 22.7545999,22.425 37.9044999,22.425 l 743.51342,0 c 15.1499,0 29.781,-8.3548 37.9045,-22.425 8.5102,-14.74 7.333,-32.098 -0.623,-45.8778 L 454.97828,22.43 z"
     style="fill:#ffffff;fill-opacity:1;fill-rule:nonzero;stroke:#000000;stroke-width:3;stroke-linecap:round;stroke-linejoin:round;stroke-miterlimit:2;stroke-opacity:1;stroke-dasharray:none;stroke-dashoffset:0" />
  <path
     style="fill:#d40000;fill-opacity:1;fill-rule:nonzero;stroke:none"
     d="m 417.05288,16.5053 c 10.9092,0 20.385,5.5528 24.9376,13.4375 l 371.09372,642.75 c 5.549,9.6109 6.2861,21.0698 0.625,30.875 -5.5096,9.5428 -15.2711,14.9062 -24.9063,14.9063 l -743.53122,0 c -9.6352,0 -19.3966,-5.3633 -24.9062,-14.9063 -5.6611,-9.8052 -4.924,-21.2631 0.625,-30.875 L 391.64668,30.6303 c 4.8181,-8.3452 14.3881,-14.125 25.4062,-14.125 z"
     id="path3092" />
  <path
     style="fill:#ffffff;fill-opacity:1;fill-rule:nonzero;stroke:none"
     d="m 417.02168,146.6928 283.93752,491.7813 -567.84372,0 283.9062,-491.7813 z"
     id="path3102" />
  <g
     id="g5634"
     transform="matrix(4.17043,0,0,4.17043,-913.98876,-48.694607)" />
  <path
     style="fill:#000000"
     d="m -1607.7539,1565.0109 c 0,0 0,0 0,0 z"
     id="path2835" />
  <path
     style="fill:#000000"
     d="m -1610.7227,1565.0734 0,0 z"
     id="path2833" />
  <path
     style="fill:#000000"
     d="m -2816.5588,889.49385 c 0,0 0,0 0,0 z"
     id="path2427" />
  <path
     style="fill:#000000"
     d="m -2819.5276,889.55635 0,0 z"
     id="path2429" />
  <g
     transform="matrix(11.302588,0,0,11.302588,-727.14155,-1226.8686)"
     id="g971">
    <path
       sodipodi:nodetypes="ccccc"
       inkscape:connector-curvature="0"
       id="rect880"
       d="m 78.837384,162.8262 44.337526,-0.0214 0.87746,1.2841 H 77.974792 Z"
       style="fill:#000000;fill-opacity:1;stroke:none;stroke-width:1.25099111;stroke-linecap:square;stroke-linejoin:miter;stroke-miterlimit:4;stroke-dasharray:none;stroke-opacity:1" />
    <path
       sodipodi:nodetypes="ccccc"
       inkscape:connector-curvature="0"
       id="rect883"
       d="m -86.151257,162.02437 22.038163,-0.28552 v 1.45091 l -21.994802,-0.54338 z"
       style="fill:#000000;fill-opacity:1;stroke:none;stroke-width:1.42170691;stroke-linecap:square;stroke-linejoin:miter;stroke-miterlimit:4;stroke-dasharray:none;stroke-opacity:1"
       transform="matrix(0.50187033,-0.86494287,0.85246949,0.52277697,0,0)" />
    <path
       style="fill:#000000;fill-opacity:1;stroke:none;stroke-width:1.42149627;stroke-linecap:square;stroke-linejoin:miter;stroke-miterlimit:4;stroke-dasharray:none;stroke-opacity:1"
       d="m 96.002023,160.04155 12.151647,-11.00108 0.74284,0.77022 -12.5638,10.62888 z"
       id="path905"
       inkscape:connector-curvature="0"
       sodipodi:nodetypes="ccccc" />
    <path
       sodipodi:nodetypes="ccccc"
       inkscape:connector-curvature="0"
       id="path907"
       d="m 96.33271,160.43957 11.52401,-7.3944 0.67655,1.03446 -11.919392,6.79436 z"
       style="fill:#000000;fill-opacity:1;stroke:none;stroke-width:1.42149627;stroke-linecap:square;stroke-linejoin:miter;stroke-miterlimit:4;stroke-dasharray:none;stroke-opacity:1" />
    <path
       style="fill:#000000;fill-opacity:1;stroke:none;stroke-width:1.42149627;stroke-linecap:square;stroke-linejoin:miter;stroke-miterlimit:4;stroke-dasharray:none;stroke-opacity:1"
       d="m 96.613878,160.87399 16.293612,-7.10911 0.52674,1.07726 -16.584935,6.53754 z"
       id="path909"
       inkscape:connector-curvature="0"
       sodipodi:nodetypes="ccccc" />
    <path
       sodipodi:nodetypes="ccccc"
       inkscape:connector-curvature="0"
       id="path911"
       d="m 96.849295,161.37968 13.954425,-2.38665 0.22225,1.0621 -14.092521,1.89751 z"
       style="fill:#000000;fill-opacity:1;stroke:none;stroke-width:1.42149627;stroke-linecap:square;stroke-linejoin:miter;stroke-miterlimit:4;stroke-dasharray:none;stroke-opacity:1" />
    <path
       transform="matrix(1.5725768,-0.24834925,0.25886695,1.5086834,-96.360184,-43.366296)"
       inkscape:transform-center-y="4.1934703e-06"
       d="m 107.26411,136.73943 0.84876,0.76962 -0.24213,1.11985 -1.09089,0.35024 -0.84876,-0.76962 0.24213,-1.11986 z"
       inkscape:randomized="0"
       inkscape:rounded="0"
       inkscape:flatsided="true"
       sodipodi:arg2="-0.8342592"
       sodipodi:arg1="-1.357858"
       sodipodi:r2="0.99223477"
       sodipodi:r1="1.145734"
       sodipodi:cy="137.85928"
       sodipodi:cx="107.02198"
       sodipodi:sides="6"
       id="path913"
       style="fill:#000000;fill-opacity:1;stroke:none;stroke-width:1;stroke-linecap:square;stroke-linejoin:miter;stroke-miterlimit:4;stroke-dasharray:none;stroke-opacity:1"
       sodipodi:type="star" />
    <path
       inkscape:transform-center-y="-1.861498e-06"
       inkscape:transform-center-x="1.3761439e-06"
       d="m 111.5014,147.09054 -0.23026,1.12521 -1.08959,0.3632 -0.85933,-0.76202 0.23026,-1.12521 1.08959,-0.3632 z"
       inkscape:randomized="0"
       inkscape:rounded="0"
       inkscape:flatsided="true"
       sodipodi:arg2="0.20184822"
       sodipodi:arg1="-0.32175055"
       sodipodi:r2="0.99465525"
       sodipodi:r1="1.1485289"
       sodipodi:cy="147.45374"
       sodipodi:cx="110.41181"
       sodipodi:sides="6"
       id="path915"
       style="fill:#000000;fill-opacity:1;stroke:none;stroke-width:1;stroke-linecap:square;stroke-linejoin:miter;stroke-miterlimit:4;stroke-dasharray:none;stroke-opacity:1"
       sodipodi:type="star" />
    <path
       inkscape:transform-center-y="-1.8851391e-06"
       inkscape:transform-center-x="1.3860579e-06"
       d="m 111.89486,152.96223 -1.45706,0.10238 -0.81719,-1.21066 0.63986,-1.31303 1.45706,-0.10239 0.81719,1.21066 z"
       inkscape:randomized="0"
       inkscape:rounded="0"
       inkscape:flatsided="true"
       sodipodi:arg2="1.5006454"
       sodipodi:arg1="0.97704666"
       sodipodi:r2="1.2649579"
       sodipodi:r1="1.4606476"
       sodipodi:cy="151.75157"
       sodipodi:cx="111.07767"
       sodipodi:sides="6"
       id="path917"
       style="fill:#000000;fill-opacity:1;stroke:none;stroke-width:1;stroke-linecap:square;stroke-linejoin:miter;stroke-miterlimit:4;stroke-dasharray:none;stroke-opacity:1"
       sodipodi:type="star" />
    <path
       transform="rotate(29.268152,115.83465,153.41623)"
       sodipodi:type="star"
       style="fill:#000000;fill-opacity:1;stroke:none;stroke-width:1;stroke-linecap:square;stroke-linejoin:miter;stroke-miterlimit:4;stroke-dasharray:none;stroke-opacity:1"
       id="path919"
       sodipodi:sides="6"
       sodipodi:cx="115.95056"
       sodipodi:cy="153.38596"
       sodipodi:r1="1.4606476"
       sodipodi:r2="1.2649579"
       sodipodi:arg1="0.97704666"
       sodipodi:arg2="1.5006454"
       inkscape:flatsided="true"
       inkscape:rounded="0"
       inkscape:randomized="0"
       d="m 116.76775,154.59661 -1.45705,0.10238 -0.81719,-1.21065 0.63986,-1.31304 1.45705,-0.10238 0.8172,1.21065 z" />
    <path
       d="m 116.76775,154.59661 -1.45705,0.10238 -0.81719,-1.21065 0.63986,-1.31304 1.45705,-0.10238 0.8172,1.21065 z"
       inkscape:randomized="0"
       inkscape:rounded="0"
       inkscape:flatsided="true"
       sodipodi:arg2="1.5006454"
       sodipodi:arg1="0.97704666"
       sodipodi:r2="1.2649579"
       sodipodi:r1="1.4606476"
       sodipodi:cy="153.38596"
       sodipodi:cx="115.95056"
       sodipodi:sides="6"
       id="path921"
       style="fill:#000000;fill-opacity:1;stroke:none;stroke-width:1;stroke-linecap:square;stroke-linejoin:miter;stroke-miterlimit:4;stroke-dasharray:none;stroke-opacity:1"
       sodipodi:type="star"
       transform="matrix(1.0174475,0.57022151,-0.57022151,1.0174475,83.481495,-63.315493)" />
    <g
       id="g929">
      <rect
         style="fill:#000000;fill-opacity:1;stroke:none;stroke-width:1;stroke-linecap:square;stroke-linejoin:miter;stroke-miterlimit:4;stroke-dasharray:none;stroke-opacity:1"
         id="rect923"
         width="3.9648976"
         height="2.3456457"
         x="89.6642"
         y="159.8327" />
      <path
         style="fill:#000000;fill-opacity:1;stroke:none;stroke-width:1.6286453;stroke-linecap:square;stroke-linejoin:miter;stroke-miterlimit:4;stroke-dasharray:none;stroke-opacity:1"
         id="path925"
         sodipodi:type="arc"
         sodipodi:cx="91.646645"
         sodipodi:cy="162.10266"
         sodipodi:rx="1.9824469"
         sodipodi:ry="0.74152541"
         sodipodi:start="0.0045284836"
         sodipodi:end="0"
         sodipodi:open="true"
         d="m 93.629071,162.10602 a 1.9824469,0.74152541 0 0 1 -1.98916,0.73816 1.9824469,0.74152541 0 0 1 -1.975708,-0.7432 1.9824469,0.74152541 0 0 1 1.984686,-0.73984 1.9824469,0.74152541 0 0 1 1.980203,0.74152" />
    </g>
    <g
       id="g941">
      <path
         style="fill:#000000;fill-opacity:1;stroke:none;stroke-width:0.96427411;stroke-linecap:square;stroke-linejoin:miter;stroke-miterlimit:4;stroke-dasharray:none;stroke-opacity:1"
         d="m 81.390182,158.3606 h 12.648329 v 1.13428 l -13.140565,-0.0428 z"
         id="rect931"
         inkscape:connector-curvature="0"
         sodipodi:nodetypes="ccccc" />
      <path
         style="fill:#000000;fill-opacity:1;stroke:none;stroke-width:1.67803156;stroke-linecap:square;stroke-linejoin:miter;stroke-miterlimit:4;stroke-dasharray:none;stroke-opacity:1"
         id="path937"
         sodipodi:type="arc"
         sodipodi:cx="93.936859"
         sodipodi:cy="158.92241"
         sodipodi:rx="0.39057872"
         sodipodi:ry="0.57249206"
         sodipodi:start="0.0045284836"
         sodipodi:end="0"
         sodipodi:open="true"
         d="m 94.327434,158.925 a 0.39057872,0.57249206 0 0 1 -0.391901,0.5699 0.39057872,0.57249206 0 0 1 -0.389252,-0.57379 0.39057872,0.57249206 0 0 1 0.39102,-0.57119 0.39057872,0.57249206 0 0 1 0.390137,0.57249" />
    </g>
    <path
       inkscape:connector-curvature="0"
       id="path945"
       d="m 84.957771,151.96343 -3.208237,5.75062 11.470962,-0.0605 c 0,0 0.786927,0.0605 1.634385,-1.27118 0.84746,-1.33173 -0.756658,-3.32931 -0.756658,-3.32931 0,0 -0.665861,-0.60533 -2.330514,-0.78692 -1.664652,-0.1816 -6.809938,-0.30267 -6.809938,-0.30267 z"
       style="fill:#000000;fill-opacity:1;stroke:none;stroke-width:0.26458332px;stroke-linecap:butt;stroke-linejoin:miter;stroke-opacity:1" />
    <path
       d="m 94.128468,155.22468 a 1.7100513,1.6797849 0 0 1 -1.715842,1.67217 1.7100513,1.6797849 0 0 1 -1.704239,-1.68358 1.7100513,1.6797849 0 0 1 1.711983,-1.67598 1.7100513,1.6797849 0 0 1 1.708115,1.67978"
       sodipodi:open="true"
       sodipodi:end="0"
       sodipodi:start="0.0045284836"
       sodipodi:ry="1.6797849"
       sodipodi:rx="1.7100513"
       sodipodi:cy="155.21707"
       sodipodi:cx="92.418434"
       sodipodi:type="arc"
       id="path947"
       style="fill:#ffffff;fill-opacity:1;stroke:none;stroke-width:1;stroke-linecap:square;stroke-linejoin:miter;stroke-miterlimit:4;stroke-dasharray:none;stroke-opacity:1" />
    <path
       sodipodi:nodetypes="ccccsccccccc"
       inkscape:connector-curvature="0"
       id="path949"
       d="m 88.468672,146.07662 -0.847458,1.52845 1.573851,-0.0151 c 0,0 0.544795,-0.0757 0.620461,0.37833 0.329193,0.45399 1.803292,3.8287 1.588987,3.98003 -0.158307,0.11179 1.483053,0.12106 1.483053,0.12106 0,0 -0.559927,-1.67978 -0.620461,-1.75545 -0.06053,-0.0757 -0.771792,-1.98244 -0.771792,-1.98244 l -0.93826,-1.71006 -0.317797,-0.33293 -0.363196,-0.15133 z"
       style="fill:#000000;fill-opacity:1;stroke:none;stroke-width:0.26458332px;stroke-linecap:butt;stroke-linejoin:miter;stroke-opacity:1" />
  </g>
</svg>
