<?xml version="1.0" encoding="UTF-8" standalone="no"?>
<!-- Created with Inkscape (http://www.inkscape.org/) -->

<svg
   version="1.1"
   width="6.8513603cm"
   height="6.0108724cm"
   id="svg2"
   sodipodi:docname="preavviso_pedonale.svg"
   inkscape:version="1.1 (c68e22c387, 2021-05-23)"
   xmlns:inkscape="http://www.inkscape.org/namespaces/inkscape"
   xmlns:sodipodi="http://sodipodi.sourceforge.net/DTD/sodipodi-0.dtd"
   xmlns="http://www.w3.org/2000/svg"
   xmlns:svg="http://www.w3.org/2000/svg"
   xmlns:rdf="http://www.w3.org/1999/02/22-rdf-syntax-ns#"
   xmlns:cc="http://creativecommons.org/ns#"
   xmlns:dc="http://purl.org/dc/elements/1.1/">
  <metadata
     id="metadata19">
    <rdf:RDF>
      <cc:Work
         rdf:about="">
        <dc:format>image/svg+xml</dc:format>
        <dc:type
           rdf:resource="http://purl.org/dc/dcmitype/StillImage" />
        <cc:license
           rdf:resource="http://creativecommons.org/publicdomain/zero/1.0/" />
      </cc:Work>
      <cc:License
         rdf:about="http://creativecommons.org/publicdomain/zero/1.0/">
        <cc:permits
           rdf:resource="http://creativecommons.org/ns#Reproduction" />
        <cc:permits
           rdf:resource="http://creativecommons.org/ns#Distribution" />
        <cc:permits
           rdf:resource="http://creativecommons.org/ns#DerivativeWorks" />
      </cc:License>
    </rdf:RDF>
  </metadata>
  <sodipodi:namedview
     pagecolor="#ffffff"
     bordercolor="#666666"
     borderopacity="1"
     objecttolerance="10"
     gridtolerance="10"
     guidetolerance="10"
     inkscape:pageopacity="0"
     inkscape:pageshadow="2"
     inkscape:window-width="1920"
     inkscape:window-height="1001"
     id="namedview17"
     showgrid="false"
     inkscape:zoom="3.4465671"
     inkscape:cx="129.40412"
     inkscape:cy="113.59129"
     inkscape:window-x="-9"
     inkscape:window-y="-9"
     inkscape:window-maximized="1"
     inkscape:current-layer="svg2"
     units="cm"
     fit-margin-top="0"
     fit-margin-left="0"
     fit-margin-right="0"
     fit-margin-bottom="0"
     inkscape:pagecheckerboard="0"
     inkscape:document-units="cm" />
  <defs
     id="defs4" />
  <g
     transform="matrix(0.999179,0,0,0.998701,-212.3627,-573.85648)"
     id="g2830"
     style="font-style:normal;font-weight:400;font-size:11px;font-family:'MS Shell Dlg 2';fill:none;stroke:#000000;stroke-width:1;stroke-linecap:square;stroke-linejoin:bevel;stroke-opacity:1" />
  <g
     id="g871"
     transform="translate(-177.64841,106.32912)">
    <path
       transform="rotate(60,212.05189,114.73424)"
       inkscape:transform-center-y="-59.13426"
       inkscape:transform-center-x="-44.55818"
       d="m 193.69321,-73.297223 121.9173,0.08433 L 257.44758,28.345023 196.4159,133.88634 137.54563,32.736796 76.660006,-72.888846 Z"
       inkscape:randomized="0"
       inkscape:rounded="0"
       inkscape:flatsided="false"
       sodipodi:arg2="-0.52495492"
       sodipodi:arg1="-1.607408"
       sodipodi:r2="137.95827"
       sodipodi:r1="69.271843"
       sodipodi:cy="-4.0718012"
       sodipodi:cx="196.22881"
       sodipodi:sides="3"
       id="path849"
       style="opacity:1;fill:#ffffff;fill-opacity:1;stroke:#f90000;stroke-width:20;stroke-linecap:square;stroke-linejoin:round;stroke-miterlimit:4;stroke-dasharray:none;stroke-opacity:1;paint-order:fill markers stroke"
       sodipodi:type="star" />
    <g
       transform="matrix(1.9508784,0,0,1.9508784,198.81203,-101.94493)"
       id="g859">
      <path
         d="M 94.098116,102.30952 H 15.420002 L 54.521286,26.331601 Z"
         id="path3970"
         style="fill:#ffffff;fill-opacity:1;stroke:none;stroke-width:0.94299984"
         inkscape:connector-curvature="0" />
      <path
         d="m 51.250087,53.243181 -8.871648,14.02215 c 0,0 -0.482793,2.05214 0.965862,2.53913 1.476452,0.49636 2.124905,-0.41505 2.124905,-0.41505 l 4.979571,-7.48716 1.717093,3.84124 -10.39557,24.23563 c 0,0 -0.0945,1.8664 1.159038,2.6449 1.925357,1.1958 3.226705,-0.708 3.226705,-0.708 0,0 8.242049,-20.4758 8.413758,-20.4595 0.171711,0.016 1.015949,0 1.015949,0 l 7.311956,20.6711 c 0,0 0.751499,1.2159 2.625723,0.7324 1.384052,-0.357 1.466682,-2.5391 1.466682,-2.5391 0,0 -8.771485,-24.06473 -8.721403,-24.07286 0.05009,-0.008 0.7083,-6.70183 0.7083,-6.70183 0,0 3.258901,3.47095 3.241015,3.48723 -0.01789,0.0163 -0.0072,5.0457 -0.0072,5.0457 0,0 0.38367,1.77456 2.303768,1.48929 1.58386,-0.23528 1.731402,-1.51371 1.731402,-1.51371 l -0.03578,-7.30812 c 0,0 -8.893113,-9.68449 -8.95035,-9.70077 -0.05724,-0.0163 -0.958712,-0.39063 -0.958712,-0.39063 l -2.361002,0.0163 -2.690115,2.57168 h 8e-6 z"
         id="path3984"
         style="fill:#000000;fill-opacity:1;stroke:none;stroke-width:0.94299984"
         inkscape:connector-curvature="0" />
      <path
         d="m 79.782459,82.052521 h -4.464442 l 7.154554,16.5694 h 6.496338 z"
         id="path3191"
         style="fill:#000000;fill-opacity:1;stroke:#000000;stroke-width:0.94299984px;stroke-linecap:butt;stroke-linejoin:miter;stroke-opacity:1"
         inkscape:connector-curvature="0" />
      <polyline
         transform="matrix(0.16013049,0,0,0.1820594,-35.760766,-2.1618487)"
         style="font-style:normal;font-weight:400;font-size:11px;font-family:'MS Shell Dlg 2';vector-effect:non-scaling-stroke;fill:#000000;fill-opacity:1;stroke:none"
         points="570.302,265.02 570.108,262.13 569.531,259.292 568.581,256.556 567.275,253.971 565.636,251.583 563.693,249.435 561.481,247.565 559.039,246.006 556.412,244.787 553.646,243.929 550.789,243.447 547.895,243.35 545.013,243.64 542.195,244.311 539.492,245.352 536.952,246.744 534.62,248.463 532.538,250.476 530.743,252.749 529.267,255.241 528.136,257.908 527.371,260.702 526.985,263.572 526.985,266.469 527.371,269.339 528.136,272.133 529.267,274.799 530.743,277.292 532.538,279.565 534.62,281.578 536.952,283.296 539.492,284.688 542.195,285.729 545.013,286.401 547.895,286.691 550.789,286.594 553.646,286.112 556.412,285.254 559.039,284.035 561.481,282.476 563.693,280.606 565.636,278.458 567.275,276.07 568.581,273.485 569.531,270.749 570.108,267.91 570.302,265.02 "
         id="polyline2896" />
      <path
         d="m 65.244399,82.052521 3.062152,8.301 c 0,0 -0.114474,0.6185 -0.114474,0.8138 0,0.1953 -0.3148,1.1068 -0.3148,1.1068 l -0.600982,0.8464 -0.658221,0.651 c 0,0 -0.658218,0.1953 -0.658218,0.3255 0,0.1302 0.829928,4.5574 0.829928,4.5574 h 6.696666 l -5.094046,-16.5694 -3.148005,-0.033 z"
         id="path3189"
         style="fill:#000000;fill-opacity:1;stroke:#000000;stroke-width:0.94299984px;stroke-linecap:butt;stroke-linejoin:miter;stroke-opacity:1"
         inkscape:connector-curvature="0" />
      <path
         d="m 52.080017,82.052521 h 4.636152 l 1.545385,16.5694 h -7.240413 z"
         id="path3187"
         style="fill:#000000;fill-opacity:1;stroke:#000000;stroke-width:0.94299984px;stroke-linecap:butt;stroke-linejoin:miter;stroke-opacity:1"
         inkscape:connector-curvature="0" />
      <path
         d="m 40.833053,82.052521 c 0,0 -5.408846,16.667 -5.151279,16.6019 0.257563,-0.065 6.553572,-0.033 6.553572,-0.033 l 0.772692,-4.4598 c 0,0 -0.80131,-0.358 -0.915782,-0.4231 -0.114473,-0.065 -1.087494,-1.3673 -1.087494,-1.3673 l -0.429273,-1.2695 -0.02862,-1.3021 3.319714,-7.7476 h -3.033534 z"
         id="path3185"
         style="fill:#000000;fill-opacity:1;stroke:#000000;stroke-width:0.94299984px;stroke-linecap:butt;stroke-linejoin:miter;stroke-opacity:1"
         inkscape:connector-curvature="0" />
      <path
         d="m 19.712802,98.556821 9.558489,-16.4718 4.750624,0.065 -7.440739,16.4718 z"
         id="path3183"
         style="fill:#000000;fill-opacity:1;stroke:#000000;stroke-width:0.94299984px;stroke-linecap:butt;stroke-linejoin:miter;stroke-opacity:1"
         inkscape:connector-curvature="0" />
    </g>
  </g>
  <g
     transform="translate(-177.64841,-832.64723)"
     id="layer2"
     style="display:none" />
</svg>
