<?xml version="1.0" encoding="UTF-8" standalone="no"?>
<!-- Created with Inkscape (http://www.inkscape.org/) -->

<svg
   xmlns:dc="http://purl.org/dc/elements/1.1/"
   xmlns:cc="http://creativecommons.org/ns#"
   xmlns:rdf="http://www.w3.org/1999/02/22-rdf-syntax-ns#"
   xmlns:svg="http://www.w3.org/2000/svg"
   xmlns="http://www.w3.org/2000/svg"
   xmlns:sodipodi="http://sodipodi.sourceforge.net/DTD/sodipodi-0.dtd"
   xmlns:inkscape="http://www.inkscape.org/namespaces/inkscape"
   version="1.0"
   width="200"
   height="200"
   id="svg2"
   sodipodi:version="0.32"
   inkscape:version="0.92.5 (2060ec1f9f, 2020-04-08)"
   sodipodi:docname="senso_unico_alternato2.svg">
  <metadata
     id="metadata9">
    <rdf:RDF>
      <cc:Work
         rdf:about="">
        <dc:format>image/svg+xml</dc:format>
        <dc:type
           rdf:resource="http://purl.org/dc/dcmitype/StillImage" />
        <cc:license
           rdf:resource="http://creativecommons.org/publicdomain/zero/1.0/" />
        <dc:title></dc:title>
      </cc:Work>
      <cc:License
         rdf:about="http://creativecommons.org/publicdomain/zero/1.0/">
        <cc:permits
           rdf:resource="http://creativecommons.org/ns#Reproduction" />
        <cc:permits
           rdf:resource="http://creativecommons.org/ns#Distribution" />
        <cc:permits
           rdf:resource="http://creativecommons.org/ns#DerivativeWorks" />
      </cc:License>
    </rdf:RDF>
  </metadata>
  <sodipodi:namedview
     inkscape:window-height="829"
     inkscape:window-width="1440"
     inkscape:pageshadow="2"
     inkscape:pageopacity="0.0"
     guidetolerance="10.0"
     gridtolerance="10.0"
     objecttolerance="10.0"
     borderopacity="1.0"
     bordercolor="#666666"
     pagecolor="#ffffff"
     id="base"
     inkscape:zoom="3.0044963"
     inkscape:cx="99.999999"
     inkscape:cy="99.999995"
     inkscape:window-x="0"
     inkscape:window-y="0"
     inkscape:current-layer="svg2"
     inkscape:pagecheckerboard="0"
     showgrid="false"
     inkscape:window-maximized="1" />
  <defs
     id="defs5" />
  <path
     d="M 177.18833 110.61008 A 85.676392 85.676392 0 1 1  5.8355484,110.61008 A 85.676392 85.676392 0 1 1  177.18833 110.61008 z"
     transform="matrix(1.167183,0,0,1.167183,-6.811181,-29.1022)"
     style="fill:black;fill-opacity:1;fill-rule:evenodd;stroke:none;stroke-width:6.5;stroke-linecap:butt;stroke-linejoin:round;stroke-miterlimit:4;stroke-dasharray:none"
     id="path1873" />
  <path
     d="M 55.172415 -13.793103 A 26.5252 26.5252 0 1 1  2.122015,-13.793103 A 26.5252 26.5252 0 1 1  55.172415 -13.793103 z"
     transform="matrix(3.7323,0,0,3.7323,-6.92,151.48)"
     style="fill:white;fill-opacity:1;fill-rule:evenodd;stroke:none;stroke-width:6.5;stroke-linecap:butt;stroke-linejoin:round;stroke-miterlimit:4;stroke-dasharray:none"
     id="path1875" />
  <path
     d="M -125.19894 -42.440319 A 12.997348 12.732096 0 1 1  -151.19364,-42.440319 A 12.997348 12.732096 0 1 1  -125.19894 -42.440319 z"
     transform="matrix(7.463061,0,0,7.618542,1131.367,423.3334)"
     style="fill:#d40000;fill-opacity:1;fill-rule:evenodd;stroke:none;stroke-width:6.5;stroke-linecap:butt;stroke-linejoin:round;stroke-miterlimit:4;stroke-dasharray:none"
     id="path1877" />
  <path
     sodipodi:type="arc"
     style="fill:white;fill-opacity:1;fill-rule:evenodd;stroke:none;stroke-width:6.5;stroke-linecap:butt;stroke-linejoin:round;stroke-miterlimit:4;stroke-dasharray:none"
     id="path1874"
     sodipodi:cx="76.92308"
     sodipodi:cy="89.655174"
     sodipodi:rx="40.318302"
     sodipodi:ry="34.482758"
     d="M 117.24138 89.655174 A 40.318302 34.482758 0 1 1  36.604778,89.655174 A 40.318302 34.482758 0 1 1  117.24138 89.655174 z"
     transform="matrix(1.785789,0,0,2.088,-37.36839,-87.2)" />
  <path
     inkscape:connector-curvature="0"
     style="fill:#d40000;fill-opacity:1;stroke-width:0.24701335"
     d="m 127.41653,56.600849 22.00735,39.1439 c 0.20847,0.37081 0.33192,0.80442 0.33192,1.27366 0,1.32415 -0.96693,2.40066 -2.16137,2.40066 -0.21253,0 -0.42303,-0.0344 -0.62525,-0.0617 l -11.81804,-1.59787 c -0.0921,-0.0125 -0.20436,-0.0231 -0.30105,-0.0231 -0.41855,-1e-5 -0.75648,0.3763 -0.75648,0.84138 V 145.69549 H 120.73945 V 98.577689 c 0,-0.46508 -0.33793,-0.84139 -0.75648,-0.84138 -0.0967,0 -0.20125,0.0107 -0.29333,0.0231 l -11.81804,1.59791 c -0.20222,0.0273 -0.42044,0.0617 -0.63297,0.0617 -1.19444,0 -2.15365,-1.07651 -2.15365,-2.40066 0,-0.46924 0.11573,-0.90285 0.32421,-1.27366 z"
     id="path2491" />
  <path
     inkscape:connector-curvature="0"
     id="path2486"
     d="m 72.575081,145.69548 22.00734,-39.1439 c 0.20848,-0.37081 0.33192,-0.80442 0.33192,-1.27366 0,-1.32415 -0.96692,-2.40066 -2.16136,-2.40066 -0.21253,-1e-5 -0.42303,0.0344 -0.62525,0.0617 l -11.81805,1.59787 c -0.0921,0.0125 -0.20436,0.0231 -0.30105,0.0231 -0.41855,0 -0.75648,-0.37631 -0.75648,-0.84139 V 56.600829 h -13.35415 v 47.117811 c 0,0.46508 -0.33793,0.84139 -0.75648,0.84138 -0.0967,0 -0.20125,-0.0107 -0.29333,-0.0231 l -11.81805,-1.59786 c -0.20222,-0.0273 -0.42043,-0.0618 -0.63297,-0.0618 -1.19444,0 -2.15365,1.07651 -2.15365,2.40066 0,0.46924 0.11573,0.90285 0.32421,1.27366 z"
     style="fill:#000000;fill-opacity:1;stroke-width:0.24701335" />
</svg>
