<?xml version="1.0" encoding="UTF-8" standalone="no"?>
<svg
   xmlns:dc="http://purl.org/dc/elements/1.1/"
   xmlns:cc="http://creativecommons.org/ns#"
   xmlns:rdf="http://www.w3.org/1999/02/22-rdf-syntax-ns#"
   xmlns:svg="http://www.w3.org/2000/svg"
   xmlns="http://www.w3.org/2000/svg"
   width="247.72548mm"
   height="77.476143mm"
   viewBox="0 0 247.72548 77.476143"
   version="1.1"
   id="svg888">
  <defs
     id="defs882" />
  <metadata
     id="metadata885">
    <rdf:RDF>
      <cc:Work
         rdf:about="">
        <dc:format>image/svg+xml</dc:format>
        <dc:type
           rdf:resource="http://purl.org/dc/dcmitype/StillImage" />
        <dc:title></dc:title>
      </cc:Work>
    </rdf:RDF>
  </metadata>
  <g
     id="layer1"
     transform="matrix(0.30990457,0,0,0.30990457,0,-14.565515)">
    <rect
       style="fill:#feffff;fill-opacity:1;stroke:#000000;stroke-width:0.19981515;stroke-linecap:square;stroke-linejoin:miter;stroke-miterlimit:4;stroke-dasharray:none;stroke-opacity:1"
       id="rect815"
       width="799.16071"
       height="249.80019"
       x="0.099907577"
       y="47.099907" />
    <g
       aria-label="TOPONOMASTICA"
       transform="matrix(0.26458333,0,0,0.36011033,1.8293439,18.114287)"
       style="font-style:normal;font-variant:normal;font-weight:bold;font-stretch:normal;font-size:400px;line-height:1.25;font-family:'Liberation Sans';-inkscape-font-specification:'Liberation Sans Bold';letter-spacing:0px;word-spacing:0px;fill:#000000;fill-opacity:1;stroke:none"
       id="flowRoot861">
      <path
         d="M 262.7806,434.16831 V 645.61036 H 219.45377 V 434.16831 H 152.67318 V 393.348 h 177.06705 v 40.82031 z"
         style="font-style:normal;font-variant:normal;font-weight:bold;font-stretch:normal;font-size:366.66665649px;font-family:'Liberation Sans Narrow';-inkscape-font-specification:'Liberation Sans Narrow Bold'"
         id="path944" />
      <path
         d="m 549.05988,518.31544 q 0,29.54102 -7.16145,53.71094 -7.16146,24.16992 -20.76823,41.35742 -13.42774,17.1875 -32.94271,26.4974 -19.33594,9.30989 -43.86393,9.30989 -25.96029,0 -45.47526,-9.66797 -19.51497,-9.847 -32.58463,-27.21354 -13.06967,-17.54557 -19.69401,-41.53645 -6.44532,-23.99089 -6.44532,-52.45769 0,-29.54101 6.80339,-53.35286 6.80338,-23.81185 20.05208,-40.46224 13.42774,-16.82942 32.76367,-25.78125 19.51498,-9.13086 44.75912,-9.13086 25.24414,0 44.75911,9.13086 19.51497,9.13086 32.76367,25.96029 13.2487,16.82943 20.05208,40.64127 6.98242,23.63282 6.98242,52.99479 z m -44.222,0 q 0,-19.87304 -3.9388,-35.80729 -3.75977,-16.11328 -11.45833,-27.57161 -7.51954,-11.45833 -18.79883,-17.54557 -11.2793,-6.26628 -26.13932,-6.26628 -15.2181,0 -26.4974,6.26628 -11.2793,6.08724 -18.97786,17.54557 -7.69857,11.45833 -11.45834,27.57161 -3.75976,15.93425 -3.75976,35.80729 0,19.69401 3.75976,36.16537 3.93881,16.29232 11.45834,28.10872 7.69856,11.81641 18.97786,18.44076 11.45833,6.62434 26.31836,6.62434 15.93424,0 27.21354,-6.62434 11.45833,-6.80339 18.79883,-18.6198 7.51953,-11.99544 10.92122,-28.28775 3.58073,-16.47136 3.58073,-35.8073 z"
         style="font-style:normal;font-variant:normal;font-weight:bold;font-stretch:normal;font-size:366.66665649px;font-family:'Liberation Sans Narrow';-inkscape-font-specification:'Liberation Sans Narrow Bold'"
         id="path946" />
      <path
         d="m 752.08723,473.19826 q 0,16.29232 -4.47591,31.51041 -4.47591,15.03907 -13.7858,26.67644 -9.3099,11.63736 -23.63282,18.61979 -14.14388,6.80338 -33.65885,6.80338 h -51.38346 v 88.80208 H 581.82357 V 393.348 h 92.91992 q 19.87304,0 34.375,5.9082 14.50195,5.72917 23.99088,16.29232 9.66797,10.56315 14.32292,25.24414 4.65494,14.68099 4.65494,32.4056 z m -43.68489,0.89518 q 0,-19.51497 -9.66797,-29.54101 -9.48893,-10.20508 -28.82487,-10.20508 h -44.75911 v 81.81966 h 46.01237 q 9.66797,0 16.65039,-3.04362 6.98242,-3.04362 11.45833,-8.59375 4.65495,-5.55013 6.80339,-13.2487 2.32747,-7.8776 2.32747,-17.1875 z"
         style="font-style:normal;font-variant:normal;font-weight:bold;font-stretch:normal;font-size:366.66665649px;font-family:'Liberation Sans Narrow';-inkscape-font-specification:'Liberation Sans Narrow Bold'"
         id="path948" />
      <path
         d="m 983.58135,518.31544 q 0,29.54102 -7.16145,53.71094 -7.16146,24.16992 -20.76823,41.35742 -13.42774,17.1875 -32.94271,26.4974 -19.33594,9.30989 -43.86393,9.30989 -25.96029,0 -45.47526,-9.66797 -19.51497,-9.847 -32.58464,-27.21354 -13.06966,-17.54557 -19.69401,-41.53645 -6.44531,-23.99089 -6.44531,-52.45769 0,-29.54101 6.80339,-53.35286 6.80338,-23.81185 20.05208,-40.46224 13.42773,-16.82942 32.76367,-25.78125 19.51498,-9.13086 44.75911,-9.13086 25.24414,0 44.75912,9.13086 19.51497,9.13086 32.76367,25.96029 13.2487,16.82943 20.05208,40.64127 6.98242,23.63282 6.98242,52.99479 z m -44.222,0 q 0,-19.87304 -3.9388,-35.80729 -3.75977,-16.11328 -11.45834,-27.57161 -7.51953,-11.45833 -18.79882,-17.54557 -11.2793,-6.26628 -26.13933,-6.26628 -15.21809,0 -26.49739,6.26628 -11.2793,6.08724 -18.97786,17.54557 -7.69857,11.45833 -11.45834,27.57161 -3.75976,15.93425 -3.75976,35.80729 0,19.69401 3.75976,36.16537 3.9388,16.29232 11.45834,28.10872 7.69856,11.81641 18.97786,18.44076 11.45833,6.62434 26.31836,6.62434 15.93424,0 27.21354,-6.62434 11.45833,-6.80339 18.79883,-18.6198 7.51953,-11.99544 10.92122,-28.28775 3.58073,-16.47136 3.58073,-35.8073 z"
         style="font-style:normal;font-variant:normal;font-weight:bold;font-stretch:normal;font-size:366.66665649px;font-family:'Liberation Sans Narrow';-inkscape-font-specification:'Liberation Sans Narrow Bold'"
         id="path950" />
      <path
         d="m 1142.2077,645.61036 -90.0554,-194.25455 q 0.7162,7.8776 1.4323,15.75521 0.5371,6.80338 0.8952,14.68099 0.3581,7.8776 0.3581,15.03906 v 148.77929 h -38.4928 V 393.348 h 49.414 l 91.4876,195.86588 q -0.7161,-7.51953 -1.2532,-15.75521 -0.5371,-6.98242 -1.0742,-15.75521 -0.3581,-8.77278 -0.3581,-17.7246 V 393.348 h 38.4928 v 252.26236 z"
         style="font-style:normal;font-variant:normal;font-weight:bold;font-stretch:normal;font-size:366.66665649px;font-family:'Liberation Sans Narrow';-inkscape-font-specification:'Liberation Sans Narrow Bold'"
         id="path952" />
      <path
         d="m 1434.5742,518.31544 q 0,29.54102 -7.1614,53.71094 -7.1615,24.16992 -20.7683,41.35742 -13.4277,17.1875 -32.9427,26.4974 -19.3359,9.30989 -43.8639,9.30989 -25.9603,0 -45.4753,-9.66797 -19.5149,-9.847 -32.5846,-27.21354 -13.0697,-17.54557 -19.694,-41.53645 -6.4453,-23.99089 -6.4453,-52.45769 0,-29.54101 6.8034,-53.35286 6.8033,-23.81185 20.052,-40.46224 13.4278,-16.82942 32.7637,-25.78125 19.515,-9.13086 44.7591,-9.13086 25.2442,0 44.7591,9.13086 19.515,9.13086 32.7637,25.96029 13.2487,16.82943 20.0521,40.64127 6.9824,23.63282 6.9824,52.99479 z m -44.222,0 q 0,-19.87304 -3.9388,-35.80729 -3.7598,-16.11328 -11.4583,-27.57161 -7.5196,-11.45833 -18.7989,-17.54557 -11.2793,-6.26628 -26.1393,-6.26628 -15.2181,0 -26.4974,6.26628 -11.2793,6.08724 -18.9778,17.54557 -7.6986,11.45833 -11.4584,27.57161 -3.7597,15.93425 -3.7597,35.80729 0,19.69401 3.7597,36.16537 3.9388,16.29232 11.4584,28.10872 7.6985,11.81641 18.9778,18.44076 11.4584,6.62434 26.3184,6.62434 15.9342,0 27.2135,-6.62434 11.4584,-6.80339 18.7989,-18.6198 7.5195,-11.99544 10.9212,-28.28775 3.5807,-16.47136 3.5807,-35.8073 z"
         style="font-style:normal;font-variant:normal;font-weight:bold;font-stretch:normal;font-size:366.66665649px;font-family:'Liberation Sans Narrow';-inkscape-font-specification:'Liberation Sans Narrow Bold'"
         id="path954" />
      <path
         d="M 1639.2128,645.61036 V 492.71323 q 0,-9.13086 0.1791,-18.79883 0.179,-9.66796 0.5371,-17.7246 0,0 0.7161,-18.44076 0,0 -5.9082,26.85547 0,0 -2.5065,11.10026 l -2.5065,11.10026 -2.3275,10.02604 -2.1484,8.05664 -37.2396,140.72265 h -30.9733 l -37.2396,-140.72265 q -0.8952,-3.40169 -1.9694,-8.05664 l -2.3274,-10.02604 -2.6856,-11.10026 -2.5065,-11.10026 q 0,0 -6.2663,-26.85547 0.3581,10.38411 0.8952,20.41016 0.3581,8.59375 0.5371,18.08268 0.3581,9.48893 0.3581,16.47135 v 152.89713 h -38.4929 V 393.348 h 58.0079 l 37.0605,141.08073 q 1.4323,5.55013 3.0436,13.60677 l 3.4017,15.57617 q 0,0 3.7598,18.26172 0,0 3.9388,-17.90365 0,0 1.7904,-7.69857 l 1.7903,-7.69856 q 0.8952,-3.75977 1.7904,-7.16146 l 1.6113,-6.08724 36.3444,-141.97591 h 57.8288 v 252.26236 z"
         style="font-style:normal;font-variant:normal;font-weight:bold;font-stretch:normal;font-size:366.66665649px;font-family:'Liberation Sans Narrow';-inkscape-font-specification:'Liberation Sans Narrow Bold'"
         id="path956" />
      <path
         d="m 1863.9036,645.61036 -18.2617,-64.45312 h -78.776 l -18.2617,64.45312 h -43.3269 L 1780.6517,393.348 h 51.0254 l 75.1953,252.26236 z m -48.3398,-176.70898 q 0,0 -3.5807,-12.71158 -1.6114,-6.26628 -2.8646,-11.45834 l -2.1485,-8.77278 q -0.7161,-3.4017 -0.7161,-3.75977 -0.179,0.53711 -0.8952,3.9388 -0.7161,3.40169 -1.9694,8.59375 -1.2532,5.19206 -2.8646,11.45834 l -3.5807,12.71158 -20.4101,72.50977 h 59.4401 z"
         style="font-style:normal;font-variant:normal;font-weight:bold;font-stretch:normal;font-size:366.66665649px;font-family:'Liberation Sans Narrow';-inkscape-font-specification:'Liberation Sans Narrow Bold'"
         id="path958" />
      <path
         d="m 2103.4544,572.92156 q 0,17.1875 -5.192,31.33138 -5.0131,13.96485 -15.9343,23.99089 -10.7422,10.02604 -27.5716,15.57617 -16.6504,5.37109 -39.9251,5.37109 -20.5892,0 -36.3444,-4.47591 -15.5762,-4.47591 -26.8555,-13.2487 -11.2793,-8.77278 -18.2617,-21.66341 -6.8034,-13.06966 -10.0261,-29.89909 l 41.8946,-8.41471 q 1.7903,8.41471 5.192,15.39714 3.4017,6.98242 9.3099,12.17447 5.9082,5.01303 14.681,7.87761 8.9518,2.68555 21.6634,2.68555 22.0215,0 33.6589,-8.05664 11.6374,-8.23568 11.6374,-25.60222 0,-10.38411 -4.655,-17.00846 -4.6549,-6.62435 -12.5325,-10.92122 -7.6986,-4.29688 -17.9037,-7.16146 -10.026,-2.86459 -21.1263,-5.55013 0,0 -17.7246,-5.19206 -8.7728,-2.68555 -16.8294,-6.44531 -7.8776,-3.75977 -14.8601,-8.95182 -6.8033,-5.19206 -11.9954,-12.71159 -5.013,-7.69857 -7.8776,-17.90365 -2.8646,-10.20508 -2.8646,-23.99088 0,-18.79883 6.0873,-32.22656 6.2662,-13.42774 17.1875,-21.84245 11.1002,-8.59375 26.1393,-12.53255 15.039,-3.93881 32.9427,-3.93881 20.2311,0 34.7331,3.93881 14.5019,3.75976 24.1699,11.63737 9.847,7.8776 15.3971,19.87304 5.7292,11.81641 8.4147,27.75065 l -41.8945,6.98242 q -3.2227,-16.29231 -13.2487,-24.52799 -9.847,-8.23568 -28.2878,-8.23568 -11.4583,0 -19.1569,2.50651 -7.5195,2.32748 -11.9954,6.44532 -4.4759,4.11783 -6.4453,9.66796 -1.7904,5.3711 -1.7904,11.45834 0,9.30989 3.5808,15.39713 3.7597,5.90821 10.3841,10.02604 6.6243,3.93881 15.7552,6.80339 9.1308,2.68555 20.2311,5.55013 9.668,2.50651 19.1569,5.37109 9.4889,2.68555 18.0827,6.44531 8.7728,3.75977 16.2923,9.13086 7.5195,5.3711 12.8906,13.2487 5.5501,7.69857 8.5938,18.44076 3.2226,10.74218 3.2226,25.42317 z"
         style="font-style:normal;font-variant:normal;font-weight:bold;font-stretch:normal;font-size:366.66665649px;font-family:'Liberation Sans Narrow';-inkscape-font-specification:'Liberation Sans Narrow Bold'"
         id="path960" />
      <path
         d="M 2228.7799,434.16831 V 645.61036 H 2185.453 V 434.16831 h -66.7806 V 393.348 h 177.0671 v 40.82031 z"
         style="font-style:normal;font-variant:normal;font-weight:bold;font-stretch:normal;font-size:366.66665649px;font-family:'Liberation Sans Narrow';-inkscape-font-specification:'Liberation Sans Narrow Bold'"
         id="path962" />
      <path
         d="M 2319.0142,645.61036 V 393.348 h 43.5059 v 252.26236 z"
         style="font-style:normal;font-variant:normal;font-weight:bold;font-stretch:normal;font-size:366.66665649px;font-family:'Liberation Sans Narrow';-inkscape-font-specification:'Liberation Sans Narrow Bold'"
         id="path964" />
      <path
         d="m 2499.125,607.65463 q 12.1745,0 21.1263,-4.11783 8.9518,-4.29688 15.3971,-11.10026 6.6244,-6.80339 10.9213,-15.39714 4.2968,-8.59375 7.1614,-17.36653 l 37.5977,17.36653 q -4.4759,13.60677 -11.8164,26.67643 -7.3405,13.06966 -18.4408,23.09571 -10.9212,10.02604 -26.1393,16.29231 -15.2181,6.08724 -35.8073,6.08724 -26.8555,0 -46.5495,-9.66797 -19.515,-9.847 -32.4056,-27.21354 -12.8906,-17.54557 -19.1569,-41.53645 -6.0872,-23.99089 -6.0872,-52.45769 0,-29.54101 6.0872,-53.35286 6.2663,-23.81185 18.7988,-40.46224 12.7116,-16.82942 32.0476,-25.78125 19.3359,-9.13086 45.4752,-9.13086 20.2312,0 35.4492,5.19206 15.2181,5.19206 26.1394,14.68099 11.1002,9.3099 18.2617,22.20052 7.3405,12.71159 11.4583,28.10872 l -38.1347,12.71159 q -1.9694,-8.05664 -6.2663,-15.39713 -4.2969,-7.51953 -10.9212,-13.2487 -6.4454,-5.72917 -15.2181,-9.13086 -8.7728,-3.58073 -19.8731,-3.58073 -15.7552,0 -27.0345,6.26628 -11.2793,6.08724 -18.6198,17.54557 -7.1614,11.45833 -10.7422,27.57161 -3.4017,15.93425 -3.4017,35.80729 0,19.69401 3.4017,36.16537 3.5808,16.29232 10.9213,28.10872 7.3404,11.81641 18.7988,18.44076 11.4583,6.62434 27.5716,6.62434 z"
         style="font-style:normal;font-variant:normal;font-weight:bold;font-stretch:normal;font-size:366.66665649px;font-family:'Liberation Sans Narrow';-inkscape-font-specification:'Liberation Sans Narrow Bold'"
         id="path966" />
      <path
         d="m 2765.7103,645.61036 -18.2617,-64.45312 h -78.7761 l -18.2617,64.45312 H 2607.084 L 2682.4583,393.348 h 51.0254 l 75.1953,252.26236 z m -48.3399,-176.70898 q 0,0 -3.5807,-12.71158 -1.6113,-6.26628 -2.8646,-11.45834 l -2.1484,-8.77278 q -0.7162,-3.4017 -0.7162,-3.75977 -0.179,0.53711 -0.8951,3.9388 -0.7162,3.40169 -1.9694,8.59375 -1.2533,5.19206 -2.8646,11.45834 l -3.5808,12.71158 -20.4101,72.50977 h 59.4401 z"
         style="font-style:normal;font-variant:normal;font-weight:bold;font-stretch:normal;font-size:366.66665649px;font-family:'Liberation Sans Narrow';-inkscape-font-specification:'Liberation Sans Narrow Bold'"
         id="path968" />
    </g>
    <g
       aria-label="VIA"
       transform="matrix(0.26458333,0,0,0.32716283,-1.2176708,59.906149)"
       style="font-style:normal;font-weight:normal;font-size:40px;line-height:1.25;font-family:sans-serif;letter-spacing:0px;word-spacing:0px;fill:#000000;fill-opacity:1;stroke:none"
       id="flowRoot869">
      <path
         d="m 227.2832,197.89602 h -22.96875 l -40.125,-132.093749 h 23.71875 l 22.3125,84.843749 q 0,0 2.0625,8.625 l 1.875,8.0625 q 0.9375,4.3125 1.6875,8.25 0.75,-3.84375 1.6875,-8.0625 0.75,-3.5625 1.78125,-8.0625 l 2.0625,-8.8125 22.21875,-84.843749 h 23.53125 z"
         style="font-style:normal;font-variant:normal;font-weight:bold;font-stretch:condensed;font-size:192px;font-family:'Liberation Sans Narrow';-inkscape-font-specification:'Liberation Sans Narrow Bold Condensed'"
         id="path937" />
      <path
         d="M 278.6582,197.89602 V 65.802271 h 22.78125 V 197.89602 Z"
         style="font-style:normal;font-variant:normal;font-weight:bold;font-stretch:condensed;font-size:192px;font-family:'Liberation Sans Narrow';-inkscape-font-specification:'Liberation Sans Narrow Bold Condensed'"
         id="path939" />
      <path
         d="m 398.93945,197.89602 -9.5625,-33.75 h -41.25 l -9.5625,33.75 h -22.6875 L 355.3457,65.802271 h 26.71875 l 39.375,132.093749 z m -25.3125,-92.53125 q 0,0 -1.875,-6.656249 -0.84375,-3.28125 -1.5,-6 l -1.125,-4.59375 q -0.375,-1.78125 -0.375,-1.96875 -0.0937,0.28125 -0.46875,2.0625 -0.375,1.78125 -1.03125,4.5 -0.65625,2.71875 -1.5,6 l -1.875,6.656249 -10.6875,37.96875 h 31.125 z"
         style="font-style:normal;font-variant:normal;font-weight:bold;font-stretch:condensed;font-size:192px;font-family:'Liberation Sans Narrow';-inkscape-font-specification:'Liberation Sans Narrow Bold Condensed'"
         id="path941" />
    </g>
    <rect
       style="fill:none;fill-opacity:1;stroke:#0000dc;stroke-width:5.5;stroke-linecap:square;stroke-linejoin:miter;stroke-miterlimit:4;stroke-dasharray:none;stroke-opacity:1"
       id="rect896"
       width="780"
       height="230"
       x="9.6802607"
       y="57"
       rx="30"
       ry="30" />
  </g>
</svg>
