<?xml version="1.0" encoding="UTF-8" standalone="no"?>
<!-- Created with Inkscape (http://www.inkscape.org/) -->

<svg
   xmlns:dc="http://purl.org/dc/elements/1.1/"
   xmlns:cc="http://creativecommons.org/ns#"
   xmlns:rdf="http://www.w3.org/1999/02/22-rdf-syntax-ns#"
   xmlns:svg="http://www.w3.org/2000/svg"
   xmlns="http://www.w3.org/2000/svg"
   xmlns:sodipodi="http://sodipodi.sourceforge.net/DTD/sodipodi-0.dtd"
   xmlns:inkscape="http://www.inkscape.org/namespaces/inkscape"
   width="40cm"
   height="60cm"
   viewBox="0 0 400 599.99998"
   version="1.1"
   id="svg8"
   inkscape:version="0.92.5 (2060ec1f9f, 2020-04-08)"
   sodipodi:docname="zona_rimozione.svg">
  <defs
     id="defs2" />
  <sodipodi:namedview
     id="base"
     pagecolor="#ffffff"
     bordercolor="#666666"
     borderopacity="1.0"
     inkscape:pageopacity="0.0"
     inkscape:pageshadow="2"
     inkscape:zoom="0.26767014"
     inkscape:cx="755.90551"
     inkscape:cy="1225.051"
     inkscape:document-units="mm"
     inkscape:current-layer="layer1"
     showgrid="false"
     units="cm"
     inkscape:snap-text-baseline="true"
     inkscape:window-width="1440"
     inkscape:window-height="829"
     inkscape:window-x="0"
     inkscape:window-y="0"
     inkscape:window-maximized="1"
     fit-margin-top="0"
     fit-margin-left="0"
     fit-margin-right="0"
     fit-margin-bottom="0" />
  <metadata
     id="metadata5">
    <rdf:RDF>
      <cc:Work
         rdf:about="">
        <dc:format>image/svg+xml</dc:format>
        <dc:type
           rdf:resource="http://purl.org/dc/dcmitype/StillImage" />
        <dc:title></dc:title>
      </cc:Work>
    </rdf:RDF>
  </metadata>
  <g
     inkscape:label="Livello 1"
     inkscape:groupmode="layer"
     id="layer1"
     transform="translate(0,302.99997)">
    <rect
       style="fill:#feffff;fill-opacity:1;stroke:#000000;stroke-width:0.21898906;stroke-linecap:square;stroke-linejoin:miter;stroke-miterlimit:4;stroke-dasharray:none;stroke-opacity:1"
       id="rect815"
       width="399.78101"
       height="599.78101"
       x="0.10950434"
       y="-302.89047" />
    <rect
       style="fill:none;fill-opacity:1;stroke:#000005;stroke-width:6.14731455;stroke-linecap:square;stroke-linejoin:miter;stroke-miterlimit:4;stroke-dasharray:none;stroke-opacity:1"
       id="rect896"
       width="383.85269"
       height="583.85266"
       x="8.0736618"
       y="-294.9263"
       rx="30.791662"
       ry="30.515816" />
    <g
       id="g1634"
       transform="matrix(0.53605531,0,0,0.53970689,39.183413,-277.56564)">
      <g
         id="g1882"
         transform="matrix(3,0,0,3,-776.09399,52.538009)" />
      <g
         id="g2461"
         transform="matrix(3,0,0,3,-471.70599,24.541009)" />
      <path
         d="M 600,300 C 600.0277,465.67729 465.70502,600 300,600 134.29496,600 -0.02772571,465.67729 4.2927295e-6,300 -0.02772571,134.3227 134.29496,0 300,0 465.70502,0 600.02773,134.3227 600,300 Z"
         style="fill:#000000;fill-opacity:1;fill-rule:evenodd;stroke:none"
         id="path1873"
         inkscape:connector-curvature="0" />
      <path
         d="M 596.99993,300 C 596.99993,464.02853 464.02854,596.99993 300,596.99993 135.97146,596.99993 3.0000743,464.02853 3.0000743,300 3.0000743,135.97146 135.97146,3.0000675 300,3.0000675 464.02854,3.0000675 596.99993,135.97146 596.99993,300 Z"
         style="fill:#ffffff;fill-opacity:1;fill-rule:evenodd;stroke:none"
         id="path1875"
         inkscape:connector-curvature="0" />
      <path
         style="fill:#d40000;fill-opacity:1;fill-rule:evenodd;stroke:none"
         d="M 300,9.00008 C 139.28515,9.00008 9.0000868,139.28515 9.0000868,300 9.0000868,460.71485 139.28516,590.99989 300,590.99992 460.71485,590.99992 590.99989,460.71485 590.99992,300 590.99992,139.28514 460.71485,9.00008 300,9.00008 Z m 0,74.99998 c 119.23194,0 215.99994,96.76797 215.99994,215.99994 0,53.37341 -19.44599,102.16956 -51.56248,139.87496 L 160.12504,135.56254 C 197.83043,103.44606 246.62662,84.00006 300,84.00006 Z M 133.50004,162.46879 437.53121,466.59371 C 400.16634,497.49253 352.23647,515.99994 300,515.99994 180.76807,515.99994 84.000067,419.23197 84.000067,300 c 0,-52.25846 18.577793,-100.15953 49.499973,-137.53121 z"
         id="path1877"
         inkscape:connector-curvature="0" />
      <path
         style="fill:#00408b;fill-opacity:1;fill-rule:evenodd;stroke:#ffffff;stroke-width:11;stroke-miterlimit:4;stroke-dasharray:none;stroke-opacity:1"
         d="m 300,93.00006 c -47.62582,0 -91.47905,16.15348 -126.46872,43.21873 L 463.78121,426.46872 C 490.84645,391.47904 506.99994,347.62583 506.99994,300 506.99994,185.73603 414.26394,93.00006 300,93.00006 Z M 134.25004,175.96878 C 108.3392,210.53685 93.000067,253.50605 93.000067,300 c 0,114.26397 92.735993,206.99994 206.999933,206.99994 46.49393,0 89.46316,-15.33914 124.03122,-41.24998 z"
         id="path2770"
         inkscape:connector-curvature="0" />
    </g>
    <path
       inkscape:connector-curvature="0"
       id="rect1907"
       d="M 41.686448,77.546304 H 358.31358 c 10.89803,0 19.67155,11.939461 19.67155,26.770096 v 118.04401 c 0,14.83048 -8.77352,26.76987 -19.67155,26.76987 H 41.686448 c -10.898025,0 -19.671569,-11.93939 -19.671569,-26.76987 V 104.3164 c 0,-14.830635 8.773544,-26.770096 19.671569,-26.770096 z"
       style="fill:none;stroke:#000000;stroke-width:5.02414036;stroke-linecap:round;stroke-linejoin:round;stroke-miterlimit:4;stroke-opacity:1" />
    <path
       inkscape:connector-curvature="0"
       id="path2590-5"
       style="fill:#000000;fill-opacity:1;fill-rule:nonzero;stroke:none;stroke-width:2.10444427"
       d="m 157.72828,124.62742 c -0.32928,0.0159 -0.64743,0.12009 -0.91922,0.30621 0,0 -44.05191,30.30075 -49.27302,33.89181 h 6.19211 c 6.05761,-4.16589 18.1039,-12.45423 29.99714,-20.63272 -7.75488,8.44312 -13.80828,15.03642 -18.94804,20.63272 h 4.74764 c 10.36087,-11.2738 26.80098,-29.15516 27.15325,-29.53773 l 9.42956,41.44028 3.89498,1.31278 -10.48058,-46.03495 c -0.18134,-0.83619 -0.93966,-1.41769 -1.79382,-1.37848 z m 82.81447,10.21801 c 0,0 -25.76619,15.0385 -27.21848,15.88423 l 5.53554,0.78743 21.15791,-13.06206 19.73507,2.82233 -1.50957,15.90673 2.84461,0.39451 1.35628,-15.90674 23.34568,3.34744 6.78247,17.0878 17.04444,2.45057 -17.56956,-22.31728 z m -65.11399,15.92837 -2.73475,8.9486 165.78204,23.8051 -2.55961,-12.79943 -121.27915,-17.41621 z M 61.37039,163.17974 v 10.69899 h 76.14106 v -10.69899 z m 111.80466,0.63392 3.45744,10.39309 11.55235,3.93832 c 0.0239,-0.33326 0.0636,-0.6713 0.10972,-1.00679 0.63154,-4.3963 3.16737,-8.02794 6.67318,-10.19558 l -21.79217,-3.12904 z m 29.51555,3.87256 c -1.19093,-0.0159 -2.34964,0.15908 -3.43494,0.48199 0,0.002 -0.0239,-0.004 -0.0239,0 -5.01384,0.63154 -9.20207,4.51459 -9.95546,9.75806 -0.90387,6.28939 3.46849,12.13631 9.75868,13.04026 1.69282,0.24259 3.35849,0.0835 4.90105,-0.37144 5.63822,-0.68005 10.05339,-5.41503 10.12974,-11.24653 0.0796,-5.9562 -4.39973,-10.93076 -10.19559,-11.59584 -0.38655,-0.0478 -0.78505,-0.0636 -1.18186,-0.0636 z m 10.56805,1.88203 c 2.75433,3.06667 4.17631,7.28712 3.5447,11.68334 -0.0636,0.46211 -0.13283,0.91158 -0.24101,1.35692 l 67.21428,9.64876 c 0.0239,-0.45814 0.0636,-0.91651 0.13044,-1.37863 0.63153,-4.39623 3.18932,-8.02786 6.6955,-10.19551 l -77.34463,-11.11488 z m -12.7778,4.31008 c 0.33646,-0.0158 0.66176,-0.007 1.00681,0.0397 3.11979,0.44779 5.28339,3.33486 4.83519,6.45467 -0.30224,2.10609 -1.71747,3.78013 -3.56641,4.50758 -0.0987,0.004 -0.18532,0.0239 -0.28474,0.0239 -3.1521,-0.0398 -5.68665,-2.62493 -5.64537,-5.77622 0.0318,-2.39807 1.54669,-4.43336 3.65413,-5.25118 z M 61.37039,178.0575 v 12.31774 h 25.555336 c 0.08196,-5.01376 2.508074,-9.46741 6.213744,-12.31774 z m 51.06662,0 c 3.70592,2.84548 6.12498,7.2872 6.21383,12.29603 l 18.86061,-6.03877 v -6.25726 z m -9.64861,1.07194 c -6.354624,0 -11.509236,5.15453 -11.509236,11.50836 0,6.35461 5.154612,11.50907 11.509236,11.50907 6.35375,0 11.53064,-5.15446 11.53064,-11.50907 0,-6.35383 -5.17689,-11.50836 -11.53064,-11.50836 z m 195.51672,2.27551 c -6.3539,-0.0835 -11.57908,5.02353 -11.66179,11.37743 -0.0844,6.35383 5.00127,11.57836 11.35501,11.66171 6.35389,0.0836 11.62258,-5.00191 11.70593,-11.35573 0.0796,-5.9562 -4.4216,-10.93076 -10.21809,-11.59592 -0.38656,-0.0478 -0.78426,-0.0827 -1.18106,-0.0875 z m 10.5679,1.90373 c 2.75369,3.06659 4.19754,7.26541 3.56601,11.66164 -0.0636,0.45496 -0.15749,0.89623 -0.26247,1.33449 l 21.26703,1.90375 5.18604,-10.63393 z m -206.08462,1.61868 c 3.15201,0 5.71036,2.55843 5.71036,5.71044 0,3.15209 -2.55835,5.71115 -5.71036,5.71115 -3.152099,0 -5.710447,-2.55906 -5.710447,-5.71115 0,-3.15201 2.558348,-5.71044 5.710447,-5.71044 z m 195.42923,2.29722 c 0.19566,0.002 0.39928,0 0.59095,0.0239 2.87404,0.33007 5.09211,2.79918 5.05362,5.75377 -0.0398,3.1521 -2.62428,5.68666 -5.77629,5.6453 -3.15145,-0.0397 -5.68578,-2.62485 -5.64458,-5.77622 0.0398,-3.15209 2.62428,-5.68665 5.7763,-5.64529 z" />
  </g>
</svg>
